#N canvas 55 189 804 717 12;
#X obj 30 373 arnold, f 22;
#X floatatom 30 510 5 0 0 0 - - - 0;
#X floatatom 80 473 5 0 0 0 - - - 0;
#X floatatom 130 440 5 0 0 0 - - - 0;
#X floatatom 181 411 5 0 0 0 - - - 0;
#X text 72 513 Prime;
#X text 121 474 Retrograde;
#X text 171 442 Inversion;
#X text 222 411 Retrograde Inversion;
#X floatatom 252 253 5 0 11 0 - - - 0;
#X obj 80 282 pack s f f, f 25;
#X floatatom 166 252 5 0 11 0 - - - 0;
#X msg 82 194 P;
#X obj 80 330 list trim;
#X msg 120 194 R;
#X msg 158 194 I;
#X msg 203 194 IR;
#X obj 30 58 loadbang;
#X listbox 164 331 9 0 0 0 - - - 0;
#X obj 252 52 tgl 19 0 empty empty empty 0 -10 0 12 #feffc6 #000000 #000000 0 1;
#X obj 312 170 hradio 19 1 0 5 empty empty 1\ \ 2\ \ 3\ \ 4\ \ 5 0 -10 0 12 #ff8300 #000000 #000000 0;
#X text 198 52 on/off;
#X obj 365 298 hradio 19 1 0 4 SLC empty P\ \ R\ \ I\ \ IR 0 -10 0 12 #c6feff #000000 #000000 0;
#X obj 82 162 r a;
#X obj 120 162 r b;
#X obj 158 162 r c;
#X obj 203 162 r d;
#X obj 252 202 chorder_1;
#X msg 278 52 stop;
#X text 374 36 bpm;
#X obj 332 62 expr (60/$f1)*1000;
#X floatatom 332 91 5 0 0 0 - - - 0;
#X text 467 63 bpm to ms;
#X text 375 92 ms;
#X obj 252 109 metro;
#X obj 332 122 notelength;
#X obj 266 282 s ns;
#X obj 362 501 length;
#X obj 312 325 selector;
#X text 669 550 P note length;
#X text 670 566 R note length;
#X text 670 580 I note length;
#X text 669 595 IR note length;
#X text 417 171 voices;
#X msg 332 34 120;
#X obj 413 92 v bpmvalue;
#X obj 252 17 r remote;
#X obj 499 401 markov, f 11;
#X obj 499 370 bng 19 250 50 0 empty empty empty 0 -10 0 12 #faff00 #000000 #000000;
#X obj 365 223 bng 19 250 50 0 empty empty empty 0 -10 0 12 #c6ffc7 #000000 #000000;
#X text 390 222 row reset;
#X text 410 371 value reset;
#X obj 573 276 bng 19 250 50 0 empty empty empty 0 -10 0 12 #c7c6ff #000000 #000000;
#X msg 365 255 set 0;
#X obj 432 432 mselector, f 10;
#X obj 30 563 outmidi;
#X text 446 297 row;
#X obj 573 305 t b b b;
#X obj 573 370 pack f f f;
#X msg 573 335 30;
#X msg 606 335 50;
#X msg 640 335 70;
#X obj 523 370 tgl 19 0 empty empty empty 0 -10 0 12 #dfdfdf #000000 #000000 0 1;
#X obj 166 223 r col;
#X text 474 347 which on;
#X obj 30 653 textmidi, f 14;
#X msg 125 618 clear;
#X obj 101 594 bng 19 250 50 0 empty empty empty 0 -10 0 12 #bbbbbb #000000 #000000;
#X text 97 572 header;
#X msg 175 634 write /Users/timu/Desktop/example.txt cr;
#X obj 175 565 bng 19 250 50 0 empty empty empty 0 -10 0 12 #e3c6ff #000000 #000000;
#X obj 175 595 loop12;
#X obj 214 565 tgl 19 0 empty empty empty 0 -10 0 12 #00ff04 #000000 #000000 0 1;
#X text 153 543 start;
#X text 209 543 loop on/off;
#X text 599 276 set thresholds;
#X msg 30 109 set 0 1 9 11 3 5 6 7 10 4 2 8;
#X msg 363 539 \; lengthselect 8 8 4 8 8 8 4 16 4 8 8 8 \; lengthselectR 4 4 4 4 8 8 4 16 4 8 8 16 \; lengthselectIN 4 8 4 4 16 8 4 4 8 16 16 4 \; lengthselectIR 16 16 16 8 8 16 4 8 8 4 4 4;
#X connect 0 0 1 0;
#X connect 0 1 2 0;
#X connect 0 2 3 0;
#X connect 0 3 4 0;
#X connect 1 0 55 0;
#X connect 2 0 55 1;
#X connect 3 0 55 2;
#X connect 4 0 55 3;
#X connect 9 0 10 2;
#X connect 9 0 36 0;
#X connect 10 0 13 0;
#X connect 10 0 18 0;
#X connect 11 0 10 1;
#X connect 12 0 10 0;
#X connect 13 0 0 0;
#X connect 14 0 10 0;
#X connect 15 0 10 0;
#X connect 16 0 10 0;
#X connect 17 0 76 0;
#X connect 19 0 34 0;
#X connect 20 0 27 1;
#X connect 22 0 38 2;
#X connect 23 0 12 0;
#X connect 24 0 14 0;
#X connect 25 0 15 0;
#X connect 26 0 16 0;
#X connect 27 0 9 0;
#X connect 27 1 38 0;
#X connect 28 0 34 0;
#X connect 30 0 31 0;
#X connect 31 0 34 1;
#X connect 31 0 35 0;
#X connect 34 0 27 0;
#X connect 44 0 45 0;
#X connect 44 0 30 0;
#X connect 46 0 19 0;
#X connect 48 0 47 0;
#X connect 49 0 53 0;
#X connect 49 0 38 1;
#X connect 52 0 57 0;
#X connect 53 0 22 0;
#X connect 54 0 47 2;
#X connect 55 0 65 0;
#X connect 55 1 65 1;
#X connect 55 2 65 2;
#X connect 57 0 59 0;
#X connect 57 1 60 0;
#X connect 57 2 61 0;
#X connect 58 0 47 3;
#X connect 59 0 58 0;
#X connect 60 0 58 1;
#X connect 61 0 58 2;
#X connect 62 0 47 1;
#X connect 63 0 11 0;
#X connect 66 0 65 4;
#X connect 67 0 65 3;
#X connect 69 0 65 4;
#X connect 70 0 71 0;
#X connect 71 0 69 0;
#X connect 72 0 71 1;
#X connect 76 0 0 0;
