#N canvas 1146 95 659 430 12;
#X obj 6 42 cnv 1 625 1 empty empty empty 8 12 0 13 #000000 #000000 0;
#X obj 30 296 arnold, f 18;
#X msg 30 125 set 0 2 6 7 9 10 11 1 3 5 8 4;
#X msg 96 163 R 3 4;
#X floatatom 30 361 5 0 0 0 - - - 0;
#X floatatom 71 362 5 0 0 0 - - - 0;
#X floatatom 113 362 5 0 0 0 - - - 0;
#X floatatom 154 362 5 0 0 0 - - - 0;
#X msg 102 241 IR 2 7;
#X text 149 176 from outlet 2;
#X text 156 257 from outlet 4;
#X obj 25 11 arnold;
#X text 87 11 - twelve tone row generator;
#X text 29 388 P;
#X text 71 389 R;
#X text 112 390 I;
#X text 152 388 RI;
#X text 26 53 Automatically creates other sequences from the prime sequence set with set. The first output is prime \, the second output is retrograde \, the third output is inversion \, and the fourth output is retrograde inversion., f 84;
#X text 245 124 sets the P0 (prime 0);
#X text 148 160 returns 5th note of retrograde 3;
#X text 157 240 returns 8th note of inverted retrograde 2;
#X connect 1 0 4 0;
#X connect 1 1 5 0;
#X connect 1 2 6 0;
#X connect 1 3 7 0;
#X connect 2 0 1 0;
#X connect 3 0 1 0;
#X connect 8 0 1 0;
