#N canvas 806 381 379 503 12;
#X obj 24 325 arnold, f 22;
#X floatatom 24 462 5 0 0 0 - - - 0;
#X floatatom 74 425 5 0 0 0 - - - 0;
#X floatatom 124 392 5 0 0 0 - - - 0;
#X msg 24 61 set 0 2 6 7 9 10 11 1 3 5 8 4;
#X floatatom 175 363 5 0 0 0 - - - 0;
#X text 66 465 Prime;
#X text 116 430 Retrograde;
#X text 169 395 Inversion;
#X text 217 366 Retrograde Inversion;
#X floatatom 239 194 5 0 11 0 - - - 0;
#X obj 74 234 pack s f f, f 24;
#X floatatom 156 194 5 0 11 0 - - - 0;
#X msg 74 108 P;
#X obj 74 282 list trim;
#X msg 112 108 R;
#X msg 153 108 I;
#X msg 195 108 IR;
#X obj 24 10 loadbang;
#X listbox 158 283 20 0 0 0 - - - 0;
#X connect 0 0 1 0;
#X connect 0 1 2 0;
#X connect 0 2 3 0;
#X connect 0 3 5 0;
#X connect 4 0 0 0;
#X connect 10 0 11 2;
#X connect 11 0 14 0;
#X connect 11 0 19 0;
#X connect 12 0 11 1;
#X connect 13 0 11 0;
#X connect 14 0 0 0;
#X connect 15 0 11 0;
#X connect 16 0 11 0;
#X connect 17 0 11 0;
#X connect 18 0 4 0;
