#N canvas 412 230 1134 471 12;
#X obj 90 244 list length;
#X obj 23 113 t b l l, f 10;
#X obj 23 21 inlet;
#X obj 262 363 outlet;
#X obj 262 141 unpack f f;
#X obj 262 256 +;
#X obj 262 318 mod 12;
#X obj 459 364 outlet;
#X obj 459 142 unpack f f;
#X obj 459 255 +;
#X obj 459 317 mod 12;
#X obj 526 174 expr 11-$f1;
#X obj 693 143 unpack f f;
#X obj 693 289 +;
#X obj 760 217 - 12;
#X obj 760 249 * -1;
#X obj 693 318 mod 12;
#X obj 23 74 route set P R I IR;
#X obj 979 175 expr 11-$f1;
#X obj 693 366 outlet;
#X obj 912 144 unpack f f;
#X obj 912 284 +;
#X obj 979 231 - 12;
#X obj 979 258 * -1;
#X obj 912 320 mod 12;
#X obj 912 366 outlet;
#X obj 84 21 array define prime-\$0;
#X obj 23 186 array get prime-\$0;
#X obj 56 215 array set prime-\$0;
#X obj 90 271 array size prime-\$0;
#X obj 329 179 tabread prime-\$0;
#X obj 526 206 tabread prime-\$0;
#X obj 760 185 tabread prime-\$0;
#X obj 979 203 tabread prime-\$0;
#X connect 0 0 29 0;
#X connect 1 0 27 0;
#X connect 1 1 28 0;
#X connect 1 2 0 0;
#X connect 2 0 17 0;
#X connect 4 0 5 0;
#X connect 4 1 30 0;
#X connect 5 0 6 0;
#X connect 6 0 3 0;
#X connect 8 0 9 0;
#X connect 8 1 11 0;
#X connect 9 0 10 0;
#X connect 10 0 7 0;
#X connect 11 0 31 0;
#X connect 12 0 13 0;
#X connect 12 1 32 0;
#X connect 13 0 16 0;
#X connect 14 0 15 0;
#X connect 15 0 13 1;
#X connect 16 0 19 0;
#X connect 17 0 1 0;
#X connect 17 1 4 0;
#X connect 17 2 8 0;
#X connect 17 3 12 0;
#X connect 17 4 20 0;
#X connect 18 0 33 0;
#X connect 20 0 21 0;
#X connect 20 1 18 0;
#X connect 21 0 24 0;
#X connect 22 0 23 0;
#X connect 23 0 21 1;
#X connect 24 0 25 0;
#X connect 30 0 5 1;
#X connect 31 0 9 1;
#X connect 32 0 14 0;
#X connect 33 0 22 0;
