#N canvas 791 134 778 574 12;
#X obj 561 224 sel 0;
#X obj 151 14 inlet;
#X obj 104 302 + 1;
#X obj 60 303 f 0;
#X msg 119 264 0;
#X floatatom 60 395 5 0 0 0 - - - 0;
#X obj 169 217 r counterreset;
#X obj 60 351 mod 12;
#X obj 332 343 until;
#X obj 383 388 + 1;
#X obj 332 387 f 0;
#X obj 332 420 mod 12;
#X msg 413 334 0;
#X obj 332 249 sel 0;
#X obj 251 539 outlet;
#X obj 283 513 outlet;
#X obj 561 165 inlet;
#X floatatom 332 310 5 1 4 0 - - - 0;
#X obj 379 156 + 1;
#X obj 332 155 f 0;
#X msg 379 124 0;
#X obj 634 325 s gate2;
#X obj 151 43 t b b;
#X obj 84 59 r gate1;
#X obj 60 180 spigot;
#X obj 183 129 spigot;
#X obj 497 314 s gate1;
#X obj 60 206 bng 19 250 50 0 empty empty empty 0 -10 0 12 #fcfcfc #000000 #000000;
#X obj 183 155 bng 19 250 50 0 empty empty empty 0 -10 0 12 #fcfcfc #000000 #000000;
#X obj 222 73 r gate2;
#X floatatom 222 103 5 0 0 0 - - - 0;
#X obj 693 326 s gate2off;
#X obj 290 54 r gate2off;
#X obj 569 356 s gate1off;
#X floatatom 561 252 5 0 0 0 - - - 0;
#X floatatom 604 252 5 0 0 0 - - - 0;
#X msg 290 108 0;
#X obj 290 84 bng 19 250 50 0 empty empty empty 0 -10 0 12 #fcfcfc #000000 #000000;
#X obj 602 282 t f;
#X msg 17 82 0;
#X obj 18 58 bng 19 250 50 0 empty empty empty 0 -10 0 12 #fcfcfc #000000 #000000;
#X obj 19 34 r gate1off;
#X obj 99 84 bng 19 250 50 0 empty empty empty 0 -10 0 12 #fcfcfc #000000 #000000;
#X obj 571 282 t f;
#X msg 99 113 1;
#X floatatom 99 141 5 0 0 0 - - - 0;
#X floatatom 251 445 5 0 0 0 - - - 0;
#X obj 387 273 expr $f1+1;
#X obj 332 211 mod 0;
#X obj 251 473 t b f;
#X obj 334 473 s starttime;
#X connect 0 0 34 0;
#X connect 0 1 35 0;
#X connect 1 0 22 0;
#X connect 2 0 3 1;
#X connect 3 0 2 0;
#X connect 3 0 7 0;
#X connect 4 0 3 0;
#X connect 5 0 46 0;
#X connect 6 0 4 0;
#X connect 7 0 5 0;
#X connect 8 0 10 0;
#X connect 9 0 10 1;
#X connect 10 0 9 0;
#X connect 10 0 11 0;
#X connect 11 0 46 0;
#X connect 12 0 10 1;
#X connect 13 0 17 0;
#X connect 16 0 0 0;
#X connect 16 0 47 0;
#X connect 17 0 8 0;
#X connect 18 0 19 1;
#X connect 19 0 18 0;
#X connect 19 0 48 0;
#X connect 20 0 19 1;
#X connect 22 0 24 0;
#X connect 22 1 25 0;
#X connect 23 0 42 0;
#X connect 24 0 27 0;
#X connect 25 0 28 0;
#X connect 27 0 3 0;
#X connect 28 0 19 0;
#X connect 29 0 30 0;
#X connect 30 0 25 1;
#X connect 32 0 37 0;
#X connect 34 0 26 0;
#X connect 34 0 31 0;
#X connect 35 0 38 0;
#X connect 35 0 43 0;
#X connect 36 0 30 0;
#X connect 37 0 36 0;
#X connect 38 0 21 0;
#X connect 39 0 45 0;
#X connect 40 0 39 0;
#X connect 41 0 40 0;
#X connect 42 0 44 0;
#X connect 43 0 33 0;
#X connect 44 0 45 0;
#X connect 45 0 24 1;
#X connect 46 0 49 0;
#X connect 46 0 50 0;
#X connect 47 0 17 0;
#X connect 48 0 13 0;
#X connect 49 0 15 0;
#X connect 49 1 14 0;
