#N canvas 447 124 461 454 12;
#X obj 168 413 s l1;
#X obj 211 281 r nl;
#X floatatom 47 365 5 0 0 0 - - - 0;
#X floatatom 95 365 5 0 0 0 - - - 0;
#X floatatom 142 365 5 0 0 0 - - - 0;
#X floatatom 187 365 5 0 0 0 - - - 0;
#X floatatom 235 366 5 0 0 0 - - - 0;
#X floatatom 287 367 5 0 0 0 - - - 0;
#X obj 211 311 unpack f f f f f f;
#X listbox 12 46 27 0 0 0 - - - 0;
#X floatatom 47 243 5 0 0 0 - - - 0;
#X obj 47 212 list trim;
#X listbox 46 181 25 0 0 0 - - - 0;
#X floatatom 80 120 5 0 0 0 - - - 0;
#X obj 13 150 list split;
#X obj 47 280 select 1 2 4 8 16 32;
#X obj 69 315 bng 19 250 50 0 empty empty empty 0 -10 0 12 #fcfcfc #000000 #000000;
#X obj 92 314 bng 19 250 50 0 empty empty empty 0 -10 0 12 #fcfcfc #000000 #000000;
#X obj 115 315 bng 19 250 50 0 empty empty empty 0 -10 0 12 #fcfcfc #000000 #000000;
#X obj 138 315 bng 19 250 50 0 empty empty empty 0 -10 0 12 #fcfcfc #000000 #000000;
#X obj 161 315 bng 19 250 50 0 empty empty empty 0 -10 0 12 #fcfcfc #000000 #000000;
#X obj 47 315 bng 19 250 50 0 empty empty empty 0 -10 0 12 #fcfcfc #000000 #000000;
#X obj 12 10 inlet;
#X obj 80 87 r ns;
#X obj 55 10 bng 19 250 50 0 empty empty empty 0 -10 0 12 #fcfcfc #000000 #000000;
#X text 335 367 note values (ms);
#X text 209 413 to delay object;
#X connect 1 0 8 0;
#X connect 2 0 0 0;
#X connect 3 0 0 0;
#X connect 4 0 0 0;
#X connect 5 0 0 0;
#X connect 6 0 0 0;
#X connect 7 0 0 0;
#X connect 8 0 2 0;
#X connect 8 1 3 0;
#X connect 8 2 4 0;
#X connect 8 3 5 0;
#X connect 8 4 6 0;
#X connect 8 5 7 0;
#X connect 9 0 14 0;
#X connect 10 0 15 0;
#X connect 11 0 10 0;
#X connect 12 0 11 0;
#X connect 13 0 14 1;
#X connect 13 0 24 0;
#X connect 14 1 12 0;
#X connect 15 0 21 0;
#X connect 15 1 16 0;
#X connect 15 2 17 0;
#X connect 15 3 18 0;
#X connect 15 4 19 0;
#X connect 15 5 20 0;
#X connect 16 0 3 0;
#X connect 17 0 4 0;
#X connect 18 0 5 0;
#X connect 19 0 6 0;
#X connect 20 0 7 0;
#X connect 21 0 2 0;
#X connect 22 0 9 0;
#X connect 23 0 13 0;
#X connect 24 0 9 0;
#X coords 0 0 1 1 85 60 0;
