#N canvas 941 194 474 446 12;
#X obj 208 282 r nl;
#X floatatom 44 366 5 0 0 0 - - - 0;
#X floatatom 92 366 5 0 0 0 - - - 0;
#X floatatom 139 366 5 0 0 0 - - - 0;
#X floatatom 184 366 5 0 0 0 - - - 0;
#X floatatom 232 367 5 0 0 0 - - - 0;
#X floatatom 284 368 5 0 0 0 - - - 0;
#X text 332 368 nota değerleri (ms);
#X obj 208 312 unpack f f f f f f;
#X listbox 9 47 27 0 0 0 - - - 0;
#X floatatom 44 244 5 0 0 0 - - - 0;
#X obj 44 213 list trim;
#X listbox 43 182 25 0 0 0 - - - 0;
#X floatatom 77 121 5 0 0 0 - - - 0;
#X obj 10 151 list split;
#X obj 44 281 select 1 2 4 8 16 32;
#X obj 66 316 bng 19 250 50 0 empty empty empty 0 -10 0 12 #fcfcfc #000000 #000000;
#X obj 89 315 bng 19 250 50 0 empty empty empty 0 -10 0 12 #fcfcfc #000000 #000000;
#X obj 112 316 bng 19 250 50 0 empty empty empty 0 -10 0 12 #fcfcfc #000000 #000000;
#X obj 135 316 bng 19 250 50 0 empty empty empty 0 -10 0 12 #fcfcfc #000000 #000000;
#X obj 158 316 bng 19 250 50 0 empty empty empty 0 -10 0 12 #fcfcfc #000000 #000000;
#X obj 44 316 bng 19 250 50 0 empty empty empty 0 -10 0 12 #fcfcfc #000000 #000000;
#X obj 9 11 inlet;
#X obj 77 88 r ns;
#X text 209 417 delay objesine send çıkışı;
#X obj 52 11 bng 19 250 50 0 empty empty empty 0 -10 0 12 #fcfcfc #000000 #000000;
#X obj 165 415 s l2;
#X connect 0 0 8 0;
#X connect 1 0 26 0;
#X connect 2 0 26 0;
#X connect 3 0 26 0;
#X connect 4 0 26 0;
#X connect 5 0 26 0;
#X connect 6 0 26 0;
#X connect 8 0 1 0;
#X connect 8 1 2 0;
#X connect 8 2 3 0;
#X connect 8 3 4 0;
#X connect 8 4 5 0;
#X connect 8 5 6 0;
#X connect 9 0 14 0;
#X connect 10 0 15 0;
#X connect 11 0 10 0;
#X connect 12 0 11 0;
#X connect 13 0 14 1;
#X connect 13 0 25 0;
#X connect 14 1 12 0;
#X connect 15 0 21 0;
#X connect 15 1 16 0;
#X connect 15 2 17 0;
#X connect 15 3 18 0;
#X connect 15 4 19 0;
#X connect 15 5 20 0;
#X connect 16 0 2 0;
#X connect 17 0 3 0;
#X connect 18 0 4 0;
#X connect 19 0 5 0;
#X connect 20 0 6 0;
#X connect 21 0 1 0;
#X connect 22 0 9 0;
#X connect 23 0 13 0;
#X connect 25 0 9 0;
