#N canvas 969 76 416 506 12;
#X obj 15 94 lengthselect;
#X obj 14 13 receive lengthselect;
#X listbox 15 54 36 0 0 0 - - - 0;
#X listbox 16 181 36 0 0 0 - - - 0;
#X obj 16 221 lengthselectR;
#X obj 15 140 receive lengthselectR;
#X listbox 16 305 36 0 0 0 - - - 0;
#X obj 15 264 receive lengthselectIN;
#X listbox 18 427 36 0 0 0 - - - 0;
#X obj 17 386 receive lengthselectIR;
#X obj 16 345 lengthselectIN;
#X obj 18 467 lengthselectIR;
#X text 282 55 P note length;
#X text 289 180 R note length;
#X text 288 304 I note length;
#X text 284 427 IR note length;
#X connect 1 0 2 0;
#X connect 2 0 0 0;
#X connect 3 0 4 0;
#X connect 5 0 3 0;
#X connect 6 0 10 0;
#X connect 7 0 6 0;
#X connect 8 0 11 0;
#X connect 9 0 8 0;
