#N canvas 294 338 401 298 12;
#X obj 88 213 bng 19 250 50 0 empty empty empty 0 -10 0 12 #fcfcfc #000000 #000000;
#X obj 88 244 s counterreset;
#X text 86 185 counter reset;
#X obj 245 199 bng 19 250 50 0 empty empty empty 0 -10 0 12 #fcfcfc #000000 #000000;
#X text 271 199 remote on/off;
#X obj 245 231 s remote;
#X obj 87 110 t b b;
#X obj 213 263 outlet;
#X text 264 262 connect to write;
#X obj 87 73 inlet;
#X text 4 72 from bang;
#X obj 213 128 t b b;
#X floatatom 213 63 5 0 0 0 - - - 0;
#X obj 213 97 sel 11;
#X obj 286 147 spigot;
#X obj 325 101 inlet;
#X obj 213 30 r starttime;
#X connect 0 0 1 0;
#X connect 3 0 5 0;
#X connect 6 0 0 0;
#X connect 6 0 3 0;
#X connect 9 0 6 0;
#X connect 11 0 7 0;
#X connect 11 1 14 0;
#X connect 12 0 13 0;
#X connect 13 0 11 0;
#X connect 14 0 3 0;
#X connect 15 0 14 1;
#X connect 16 0 12 0;
