#N canvas 744 40 985 733 12;
#X obj 152 308 inlet;
#X obj 152 337 bng 19 250 50 0 empty empty empty 0 -10 0 12 #fcfcfc #000000 #000000;
#X msg 152 362 0;
#X floatatom 313 559 5 0 0 0 - - - 0;
#X obj 313 530 expr $f1 + $f2 + $f3 + $f4;
#X obj 72 639 expr ($f1 / $f2) * 100;
#X floatatom 72 614 5 0 0 0 - - - 0;
#X floatatom 223 615 5 0 0 0 - - - 0;
#X text 510 530 select total calculator;
#X text 178 335 reset;
#X floatatom 72 668 5 0 0 0 - - - 0;
#X obj 317 646 expr ($f1 / $f2) * 100;
#X floatatom 317 621 5 0 0 0 - - - 0;
#X floatatom 468 622 5 0 0 0 - - - 0;
#X floatatom 317 675 5 0 0 0 - - - 0;
#X obj 553 646 expr ($f1 / $f2) * 100;
#X floatatom 553 621 5 0 0 0 - - - 0;
#X floatatom 704 622 5 0 0 0 - - - 0;
#X floatatom 553 675 5 0 0 0 - - - 0;
#X obj 784 647 expr ($f1 / $f2) * 100;
#X floatatom 784 622 5 0 0 0 - - - 0;
#X floatatom 935 623 5 0 0 0 - - - 0;
#X floatatom 784 676 5 0 0 0 - - - 0;
#X obj 42 613 bng 19 250 50 0 empty VALXP empty 0 -10 0 12 #fcfcfc #000000 #000000;
#X obj 286 620 bng 19 250 50 0 empty VALXP empty 0 -10 0 12 #fcfcfc #000000 #000000;
#X obj 525 621 bng 19 250 50 0 empty VALXP empty 0 -10 0 12 #fcfcfc #000000 #000000;
#X obj 756 621 bng 19 250 50 0 empty VALXP empty 0 -10 0 12 #fcfcfc #000000 #000000;
#X obj 9 668 bng 19 250 50 0 BANGV empty empty 0 -10 0 12 #fcfcfc #000000 #000000;
#X obj 252 674 bng 19 250 50 0 BANGV empty empty 0 -10 0 12 #fcfcfc #000000 #000000;
#X obj 492 673 bng 19 250 50 0 BANGV empty empty 0 -10 0 12 #fcfcfc #000000 #000000;
#X obj 718 676 bng 19 250 50 0 BANGV empty empty 0 -10 0 12 #fcfcfc #000000 #000000;
#X text 116 669 P-P value;
#X text 363 675 P-R value;
#X text 601 675 P-I value;
#X text 834 677 P-IR value;
#X text 114 82 P value calculator;
#X obj 344 45 inlet;
#X floatatom 344 73 5 0 0 0 - - - 0;
#X obj 356 404 + 1;
#X obj 314 405 f 0;
#X obj 314 347 sel 1;
#X obj 314 371 bng 19 250 50 0 BXP empty empty 0 -10 0 12 #fcfcfc #000000 #000000;
#X obj 314 431 + 1;
#X floatatom 314 458 5 0 0 0 - - - 0;
#X text 319 483 P-R;
#X obj 438 404 + 1;
#X obj 396 405 f 0;
#X obj 396 371 bng 19 250 50 0 BXP empty empty 0 -10 0 12 #fcfcfc #000000 #000000;
#X obj 396 431 + 1;
#X floatatom 396 458 5 0 0 0 - - - 0;
#X text 403 482 P-I;
#X text 488 481 P-IR;
#X obj 396 347 sel 2;
#X obj 521 403 + 1;
#X obj 479 404 f 0;
#X obj 479 370 bng 19 250 50 0 BXP empty empty 0 -10 0 12 #fcfcfc #000000 #000000;
#X obj 479 430 + 1;
#X floatatom 479 457 5 0 0 0 - - - 0;
#X obj 479 346 sel 3;
#X obj 287 458 bng 19 250 50 0 empty empty empty 0 -10 0 12 #fcfcfc #000000 #000000;
#X obj 373 458 bng 19 250 50 0 empty empty empty 0 -10 0 12 #fcfcfc #000000 #000000;
#X obj 456 458 bng 19 250 50 0 empty empty empty 0 -10 0 12 #fcfcfc #000000 #000000;
#X obj 279 405 + 1;
#X obj 237 406 f 0;
#X obj 237 373 bng 19 250 50 0 BXP empty empty 0 -10 0 12 #fcfcfc #000000 #000000;
#X obj 237 432 + 1;
#X floatatom 237 459 5 0 0 0 - - - 0;
#X obj 237 348 sel 0;
#X text 239 483 P-P;
#X obj 286 184 == 0;
#X floatatom 286 211 5 0 0 0 - - - 0;
#X obj 285 276 spigot;
#X obj 259 560 outlet;
#X floatatom 327 211 5 0 0 0 - - - 0;
#X obj 327 184 == 1;
#X floatatom 369 210 5 0 0 0 - - - 0;
#X floatatom 410 210 5 0 0 0 - - - 0;
#X obj 369 183 == 2;
#X obj 410 183 == 3;
#X obj 337 275 spigot;
#X obj 390 274 spigot;
#X obj 440 274 spigot;
#X obj 211 459 bng 19 250 50 0 empty empty empty 0 -10 0 12 #fcfcfc #000000 #000000;
#X obj 386 72 == 0;
#X floatatom 386 45 5 0 0 0 - - - 0;
#X text 434 42 state;
#X obj 347 129 spigot;
#X floatatom 386 100 5 0 0 0 - - - 0;
#X obj 33 668 s pp;
#X obj 278 674 s pr;
#X obj 516 674 v pi;
#X obj 742 676 v pir;
#X msg 287 482 1;
#X msg 373 481 2;
#X msg 456 481 3;
#X floatatom 259 531 5 0 0 0 - - - 0;
#X text 179 531 next state;
#X obj 386 13 inlet;
#X connect 0 0 1 0;
#X connect 1 0 2 0;
#X connect 2 0 39 0;
#X connect 2 0 46 0;
#X connect 2 0 54 0;
#X connect 2 0 63 0;
#X connect 2 0 95 0;
#X connect 3 0 7 0;
#X connect 3 0 13 0;
#X connect 3 0 17 0;
#X connect 3 0 21 0;
#X connect 4 0 3 0;
#X connect 5 0 10 0;
#X connect 6 0 5 0;
#X connect 7 0 5 1;
#X connect 10 0 27 0;
#X connect 10 0 88 0;
#X connect 11 0 14 0;
#X connect 12 0 11 0;
#X connect 13 0 11 1;
#X connect 14 0 28 0;
#X connect 14 0 89 0;
#X connect 15 0 18 0;
#X connect 16 0 15 0;
#X connect 17 0 15 1;
#X connect 18 0 29 0;
#X connect 18 0 90 0;
#X connect 19 0 22 0;
#X connect 20 0 19 0;
#X connect 21 0 19 1;
#X connect 22 0 30 0;
#X connect 22 0 91 0;
#X connect 23 0 5 0;
#X connect 24 0 11 0;
#X connect 25 0 15 0;
#X connect 26 0 19 0;
#X connect 36 0 37 0;
#X connect 37 0 86 0;
#X connect 38 0 39 1;
#X connect 39 0 38 0;
#X connect 39 0 42 0;
#X connect 40 0 41 0;
#X connect 41 0 39 0;
#X connect 42 0 43 0;
#X connect 42 0 59 0;
#X connect 43 0 12 0;
#X connect 43 0 4 1;
#X connect 45 0 46 1;
#X connect 46 0 45 0;
#X connect 46 0 48 0;
#X connect 47 0 46 0;
#X connect 48 0 49 0;
#X connect 48 0 60 0;
#X connect 49 0 16 0;
#X connect 49 0 4 2;
#X connect 52 0 47 0;
#X connect 53 0 54 1;
#X connect 54 0 53 0;
#X connect 54 0 56 0;
#X connect 55 0 54 0;
#X connect 56 0 57 0;
#X connect 56 0 61 0;
#X connect 57 0 20 0;
#X connect 57 0 4 3;
#X connect 58 0 55 0;
#X connect 59 0 4 0;
#X connect 59 0 92 0;
#X connect 60 0 4 0;
#X connect 60 0 93 0;
#X connect 61 0 4 0;
#X connect 61 0 94 0;
#X connect 62 0 63 1;
#X connect 63 0 62 0;
#X connect 63 0 65 0;
#X connect 64 0 63 0;
#X connect 65 0 66 0;
#X connect 65 0 82 0;
#X connect 66 0 6 0;
#X connect 66 0 4 0;
#X connect 67 0 64 0;
#X connect 69 0 70 0;
#X connect 70 0 71 1;
#X connect 71 0 67 0;
#X connect 73 0 79 1;
#X connect 74 0 73 0;
#X connect 75 0 80 1;
#X connect 76 0 81 1;
#X connect 77 0 75 0;
#X connect 78 0 76 0;
#X connect 79 0 40 0;
#X connect 80 0 52 0;
#X connect 81 0 58 0;
#X connect 82 0 4 0;
#X connect 83 0 87 0;
#X connect 84 0 83 0;
#X connect 86 0 69 0;
#X connect 86 0 74 0;
#X connect 86 0 77 0;
#X connect 86 0 78 0;
#X connect 86 0 71 0;
#X connect 86 0 79 0;
#X connect 86 0 80 0;
#X connect 86 0 81 0;
#X connect 87 0 86 1;
#X connect 92 0 95 0;
#X connect 93 0 95 0;
#X connect 94 0 95 0;
#X connect 95 0 72 0;
#X connect 97 0 84 0;
