#N canvas 425 173 1267 714 12;
#X obj 149 302 inlet;
#X obj 149 331 bng 19 250 50 0 empty empty empty 0 -10 0 12 #fcfcfc #000000 #000000;
#X msg 149 356 0;
#X floatatom 310 553 5 0 0 0 - - - 0;
#X obj 310 524 expr $f1 + $f2 + $f3 + $f4;
#X obj 69 633 expr ($f1 / $f2) * 100;
#X floatatom 69 608 5 0 0 0 - - - 0;
#X floatatom 220 609 5 0 0 0 - - - 0;
#X text 507 524 select total calculator;
#X text 175 329 reset;
#X floatatom 73 662 5 0 0 0 - - - 0;
#X obj 314 640 expr ($f1 / $f2) * 100;
#X floatatom 314 615 5 0 0 0 - - - 0;
#X floatatom 465 616 5 0 0 0 - - - 0;
#X floatatom 319 669 5 0 0 0 - - - 0;
#X obj 550 640 expr ($f1 / $f2) * 100;
#X floatatom 550 615 5 0 0 0 - - - 0;
#X floatatom 701 616 5 0 0 0 - - - 0;
#X floatatom 556 669 5 0 0 0 - - - 0;
#X obj 790 642 expr ($f1 / $f2) * 100;
#X floatatom 790 617 5 0 0 0 - - - 0;
#X floatatom 941 618 5 0 0 0 - - - 0;
#X floatatom 790 671 5 0 0 0 - - - 0;
#X obj 39 607 bng 19 250 50 0 empty VALXP empty 0 -10 0 12 #fcfcfc #000000 #000000;
#X obj 283 614 bng 19 250 50 0 empty VALXP empty 0 -10 0 12 #fcfcfc #000000 #000000;
#X obj 522 615 bng 19 250 50 0 empty VALXP empty 0 -10 0 12 #fcfcfc #000000 #000000;
#X obj 753 615 bng 19 250 50 0 empty VALXP empty 0 -10 0 12 #fcfcfc #000000 #000000;
#X obj 6 662 bng 19 250 50 0 BANGV empty empty 0 -10 0 12 #fcfcfc #000000 #000000;
#X obj 249 668 bng 19 250 50 0 BANGV empty empty 0 -10 0 12 #fcfcfc #000000 #000000;
#X obj 489 667 bng 19 250 50 0 BANGV empty empty 0 -10 0 12 #fcfcfc #000000 #000000;
#X obj 715 670 bng 19 250 50 0 BANGV empty empty 0 -10 0 12 #fcfcfc #000000 #000000;
#X obj 341 39 inlet;
#X floatatom 341 67 5 0 0 0 - - - 0;
#X obj 353 398 + 1;
#X obj 311 399 f 0;
#X obj 311 341 sel 1;
#X obj 311 365 bng 19 250 50 0 BXP empty empty 0 -10 0 12 #fcfcfc #000000 #000000;
#X obj 311 425 + 1;
#X floatatom 311 452 5 0 0 0 - - - 0;
#X obj 435 398 + 1;
#X obj 393 399 f 0;
#X obj 393 365 bng 19 250 50 0 BXP empty empty 0 -10 0 12 #fcfcfc #000000 #000000;
#X obj 393 425 + 1;
#X floatatom 393 452 5 0 0 0 - - - 0;
#X obj 393 341 sel 2;
#X obj 518 397 + 1;
#X obj 476 398 f 0;
#X obj 476 364 bng 19 250 50 0 BXP empty empty 0 -10 0 12 #fcfcfc #000000 #000000;
#X obj 476 424 + 1;
#X floatatom 476 451 5 0 0 0 - - - 0;
#X obj 476 340 sel 3;
#X obj 284 452 bng 19 250 50 0 empty empty empty 0 -10 0 12 #fcfcfc #000000 #000000;
#X obj 370 452 bng 19 250 50 0 empty empty empty 0 -10 0 12 #fcfcfc #000000 #000000;
#X obj 453 452 bng 19 250 50 0 empty empty empty 0 -10 0 12 #fcfcfc #000000 #000000;
#X obj 276 399 + 1;
#X obj 234 400 f 0;
#X obj 234 367 bng 19 250 50 0 BXP empty empty 0 -10 0 12 #fcfcfc #000000 #000000;
#X obj 234 426 + 1;
#X floatatom 234 453 5 0 0 0 - - - 0;
#X obj 234 342 sel 0;
#X obj 283 178 == 0;
#X floatatom 283 205 5 0 0 0 - - - 0;
#X obj 282 270 spigot;
#X obj 256 554 outlet;
#X floatatom 324 205 5 0 0 0 - - - 0;
#X obj 324 178 == 1;
#X floatatom 366 204 5 0 0 0 - - - 0;
#X floatatom 407 204 5 0 0 0 - - - 0;
#X obj 366 177 == 2;
#X obj 407 177 == 3;
#X obj 334 269 spigot;
#X obj 387 268 spigot;
#X obj 437 268 spigot;
#X obj 208 453 bng 19 250 50 0 empty empty empty 0 -10 0 12 #fcfcfc #000000 #000000;
#X floatatom 383 39 5 0 0 0 - - - 0;
#X text 431 36 state;
#X obj 344 123 spigot;
#X floatatom 383 94 5 0 0 0 - - - 0;
#X floatatom 256 525 5 0 0 0 - - - 0;
#X text 176 525 next state;
#X msg 208 477 0;
#X msg 284 477 1;
#X obj 383 66 == 3;
#X msg 370 476 0;
#X text 485 475 IR-IR;
#X text 239 477 IR-P;
#X text 316 477 IR-R;
#X text 400 476 IR-I;
#X text 111 76 IR value calculator;
#X obj 383 10 inlet;
#X text 117 663 IR-P value;
#X text 365 669 IR-R value;
#X text 604 669 IR-I value;
#X text 840 672 IR-IR value;
#X obj 30 662 s irp;
#X obj 275 668 s irr;
#X obj 513 668 v iri;
#X obj 739 670 v irir;
#X connect 0 0 1 0;
#X connect 1 0 2 0;
#X connect 2 0 34 0;
#X connect 2 0 40 0;
#X connect 2 0 46 0;
#X connect 2 0 55 0;
#X connect 2 0 78 0;
#X connect 3 0 7 0;
#X connect 3 0 13 0;
#X connect 3 0 17 0;
#X connect 3 0 21 0;
#X connect 4 0 3 0;
#X connect 5 0 10 0;
#X connect 6 0 5 0;
#X connect 7 0 5 1;
#X connect 10 0 27 0;
#X connect 10 0 94 0;
#X connect 11 0 14 0;
#X connect 12 0 11 0;
#X connect 13 0 11 1;
#X connect 14 0 28 0;
#X connect 14 0 95 0;
#X connect 15 0 18 0;
#X connect 16 0 15 0;
#X connect 17 0 15 1;
#X connect 18 0 29 0;
#X connect 18 0 96 0;
#X connect 19 0 22 0;
#X connect 20 0 19 0;
#X connect 21 0 19 1;
#X connect 22 0 30 0;
#X connect 22 0 97 0;
#X connect 23 0 5 0;
#X connect 24 0 11 0;
#X connect 25 0 15 0;
#X connect 26 0 19 0;
#X connect 31 0 32 0;
#X connect 32 0 76 0;
#X connect 33 0 34 1;
#X connect 34 0 33 0;
#X connect 34 0 37 0;
#X connect 35 0 36 0;
#X connect 36 0 34 0;
#X connect 37 0 38 0;
#X connect 37 0 51 0;
#X connect 38 0 12 0;
#X connect 38 0 4 1;
#X connect 39 0 40 1;
#X connect 40 0 39 0;
#X connect 40 0 42 0;
#X connect 41 0 40 0;
#X connect 42 0 43 0;
#X connect 42 0 52 0;
#X connect 43 0 16 0;
#X connect 43 0 4 2;
#X connect 44 0 41 0;
#X connect 45 0 46 1;
#X connect 46 0 45 0;
#X connect 46 0 48 0;
#X connect 47 0 46 0;
#X connect 48 0 49 0;
#X connect 48 0 53 0;
#X connect 49 0 20 0;
#X connect 49 0 4 3;
#X connect 50 0 47 0;
#X connect 51 0 4 0;
#X connect 51 0 81 0;
#X connect 52 0 4 0;
#X connect 52 0 83 0;
#X connect 53 0 4 0;
#X connect 54 0 55 1;
#X connect 55 0 54 0;
#X connect 55 0 57 0;
#X connect 56 0 55 0;
#X connect 57 0 58 0;
#X connect 57 0 73 0;
#X connect 58 0 6 0;
#X connect 58 0 4 0;
#X connect 59 0 56 0;
#X connect 60 0 61 0;
#X connect 61 0 62 1;
#X connect 62 0 59 0;
#X connect 64 0 70 1;
#X connect 65 0 64 0;
#X connect 66 0 71 1;
#X connect 67 0 72 1;
#X connect 68 0 66 0;
#X connect 69 0 67 0;
#X connect 70 0 35 0;
#X connect 71 0 44 0;
#X connect 72 0 50 0;
#X connect 73 0 4 0;
#X connect 73 0 80 0;
#X connect 74 0 82 0;
#X connect 76 0 60 0;
#X connect 76 0 65 0;
#X connect 76 0 68 0;
#X connect 76 0 69 0;
#X connect 76 0 62 0;
#X connect 76 0 70 0;
#X connect 76 0 71 0;
#X connect 76 0 72 0;
#X connect 77 0 76 1;
#X connect 78 0 63 0;
#X connect 80 0 78 0;
#X connect 81 0 78 0;
#X connect 82 0 77 0;
#X connect 83 0 78 0;
#X connect 89 0 74 0;
