#N canvas 1146 95 637 252 12;
#X obj 6 42 cnv 1 625 1 empty empty empty 8 12 0 13 #000000 #000000 0;
#X obj 117 149 bng 19 250 50 0 empty empty empty 0 -10 0 12 #fcfcfc #000000 #000000;
#X floatatom 157 149 5 0 0 0 - - - 0;
#X floatatom 117 214 5 0 0 0 - - - 0;
#X obj 25 11 markovprime;
#X obj 117 183 markovprime, f 12;
#X text 70 149 reset;
#X text 97 125 current row;
#X floatatom 198 150 5 0 0 0 - - - 0;
#X text 243 150 current state;
#X text 23 214 next state;
#X text 113 11 - markov transition calculator;
#X text 522 134 same objects:;
#X obj 525 159 markovretro;
#X obj 525 184 markovinv;
#X obj 525 208 markovretroinv;
#X text 25 54 [markovprime] and other inner [markov] objects calculates the ratio of each pass by counting which row is selected. Its deciding the next markov state., f 84;
#X connect 1 0 5 0;
#X connect 2 0 5 1;
#X connect 5 0 3 0;
#X connect 8 0 5 2;
