#N canvas 724 88 980 725 12;
#X obj 150 298 inlet;
#X obj 150 327 bng 19 250 50 0 empty empty empty 0 -10 0 12 #fcfcfc #000000 #000000;
#X msg 150 352 0;
#X floatatom 311 549 5 0 0 0 - - - 0;
#X obj 311 520 expr $f1 + $f2 + $f3 + $f4;
#X obj 70 629 expr ($f1 / $f2) * 100;
#X floatatom 70 604 5 0 0 0 - - - 0;
#X floatatom 221 605 5 0 0 0 - - - 0;
#X text 508 520 select total calculator;
#X text 176 325 reset;
#X floatatom 70 658 5 0 0 0 - - - 0;
#X obj 315 636 expr ($f1 / $f2) * 100;
#X floatatom 315 611 5 0 0 0 - - - 0;
#X floatatom 466 612 5 0 0 0 - - - 0;
#X floatatom 315 665 5 0 0 0 - - - 0;
#X obj 551 636 expr ($f1 / $f2) * 100;
#X floatatom 551 611 5 0 0 0 - - - 0;
#X floatatom 702 612 5 0 0 0 - - - 0;
#X floatatom 551 665 5 0 0 0 - - - 0;
#X obj 782 637 expr ($f1 / $f2) * 100;
#X floatatom 782 612 5 0 0 0 - - - 0;
#X floatatom 933 613 5 0 0 0 - - - 0;
#X floatatom 782 666 5 0 0 0 - - - 0;
#X obj 40 603 bng 19 250 50 0 empty VALXP empty 0 -10 0 12 #fcfcfc #000000 #000000;
#X obj 284 610 bng 19 250 50 0 empty VALXP empty 0 -10 0 12 #fcfcfc #000000 #000000;
#X obj 523 611 bng 19 250 50 0 empty VALXP empty 0 -10 0 12 #fcfcfc #000000 #000000;
#X obj 754 611 bng 19 250 50 0 empty VALXP empty 0 -10 0 12 #fcfcfc #000000 #000000;
#X obj 7 658 bng 19 250 50 0 BANGV empty empty 0 -10 0 12 #fcfcfc #000000 #000000;
#X obj 250 664 bng 19 250 50 0 BANGV empty empty 0 -10 0 12 #fcfcfc #000000 #000000;
#X obj 490 663 bng 19 250 50 0 BANGV empty empty 0 -10 0 12 #fcfcfc #000000 #000000;
#X obj 716 666 bng 19 250 50 0 BANGV empty empty 0 -10 0 12 #fcfcfc #000000 #000000;
#X obj 342 35 inlet;
#X floatatom 342 63 5 0 0 0 - - - 0;
#X obj 354 394 + 1;
#X obj 312 395 f 0;
#X obj 312 337 sel 1;
#X obj 312 361 bng 19 250 50 0 BXP empty empty 0 -10 0 12 #fcfcfc #000000 #000000;
#X obj 312 421 + 1;
#X floatatom 312 448 5 0 0 0 - - - 0;
#X obj 436 394 + 1;
#X obj 394 395 f 0;
#X obj 394 361 bng 19 250 50 0 BXP empty empty 0 -10 0 12 #fcfcfc #000000 #000000;
#X obj 394 421 + 1;
#X floatatom 394 448 5 0 0 0 - - - 0;
#X obj 394 337 sel 2;
#X obj 519 393 + 1;
#X obj 477 394 f 0;
#X obj 477 360 bng 19 250 50 0 BXP empty empty 0 -10 0 12 #fcfcfc #000000 #000000;
#X obj 477 420 + 1;
#X floatatom 477 447 5 0 0 0 - - - 0;
#X obj 477 336 sel 3;
#X obj 285 448 bng 19 250 50 0 empty empty empty 0 -10 0 12 #fcfcfc #000000 #000000;
#X obj 371 448 bng 19 250 50 0 empty empty empty 0 -10 0 12 #fcfcfc #000000 #000000;
#X obj 454 448 bng 19 250 50 0 empty empty empty 0 -10 0 12 #fcfcfc #000000 #000000;
#X obj 277 395 + 1;
#X obj 235 396 f 0;
#X obj 235 363 bng 19 250 50 0 BXP empty empty 0 -10 0 12 #fcfcfc #000000 #000000;
#X obj 235 422 + 1;
#X floatatom 235 449 5 0 0 0 - - - 0;
#X obj 235 338 sel 0;
#X obj 284 174 == 0;
#X floatatom 284 201 5 0 0 0 - - - 0;
#X obj 283 266 spigot;
#X obj 257 550 outlet;
#X floatatom 325 201 5 0 0 0 - - - 0;
#X obj 325 174 == 1;
#X floatatom 367 200 5 0 0 0 - - - 0;
#X floatatom 408 200 5 0 0 0 - - - 0;
#X obj 367 173 == 2;
#X obj 408 173 == 3;
#X obj 335 265 spigot;
#X obj 388 264 spigot;
#X obj 438 264 spigot;
#X obj 209 449 bng 19 250 50 0 empty empty empty 0 -10 0 12 #fcfcfc #000000 #000000;
#X floatatom 384 35 5 0 0 0 - - - 0;
#X text 432 32 state;
#X obj 345 119 spigot;
#X floatatom 384 90 5 0 0 0 - - - 0;
#X msg 371 471 2;
#X msg 454 471 3;
#X floatatom 257 521 5 0 0 0 - - - 0;
#X text 177 521 next state;
#X msg 209 473 0;
#X obj 384 62 == 1;
#X text 240 473 R-P;
#X text 317 473 R-R;
#X text 401 472 R-I;
#X text 486 471 R-IR;
#X text 112 71 R value calculator;
#X obj 384 8 inlet;
#X text 114 659 R-P value;
#X text 361 665 R-R value;
#X text 599 665 R-I value;
#X text 832 667 R-IR value;
#X obj 31 658 s rp;
#X obj 276 664 s rr;
#X obj 514 664 v ri;
#X obj 740 666 v rir;
#X connect 0 0 1 0;
#X connect 1 0 2 0;
#X connect 2 0 34 0;
#X connect 2 0 40 0;
#X connect 2 0 46 0;
#X connect 2 0 55 0;
#X connect 2 0 80 0;
#X connect 3 0 7 0;
#X connect 3 0 13 0;
#X connect 3 0 17 0;
#X connect 3 0 21 0;
#X connect 4 0 3 0;
#X connect 5 0 10 0;
#X connect 6 0 5 0;
#X connect 7 0 5 1;
#X connect 10 0 27 0;
#X connect 10 0 94 0;
#X connect 11 0 14 0;
#X connect 12 0 11 0;
#X connect 13 0 11 1;
#X connect 14 0 28 0;
#X connect 14 0 95 0;
#X connect 15 0 18 0;
#X connect 16 0 15 0;
#X connect 17 0 15 1;
#X connect 18 0 29 0;
#X connect 18 0 96 0;
#X connect 19 0 22 0;
#X connect 20 0 19 0;
#X connect 21 0 19 1;
#X connect 22 0 30 0;
#X connect 22 0 97 0;
#X connect 23 0 5 0;
#X connect 24 0 11 0;
#X connect 25 0 15 0;
#X connect 26 0 19 0;
#X connect 31 0 32 0;
#X connect 32 0 76 0;
#X connect 33 0 34 1;
#X connect 34 0 33 0;
#X connect 34 0 37 0;
#X connect 35 0 36 0;
#X connect 36 0 34 0;
#X connect 37 0 38 0;
#X connect 37 0 51 0;
#X connect 38 0 12 0;
#X connect 38 0 4 1;
#X connect 39 0 40 1;
#X connect 40 0 39 0;
#X connect 40 0 42 0;
#X connect 41 0 40 0;
#X connect 42 0 43 0;
#X connect 42 0 52 0;
#X connect 43 0 16 0;
#X connect 43 0 4 2;
#X connect 44 0 41 0;
#X connect 45 0 46 1;
#X connect 46 0 45 0;
#X connect 46 0 48 0;
#X connect 47 0 46 0;
#X connect 48 0 49 0;
#X connect 48 0 53 0;
#X connect 49 0 20 0;
#X connect 49 0 4 3;
#X connect 50 0 47 0;
#X connect 51 0 4 0;
#X connect 52 0 4 0;
#X connect 52 0 78 0;
#X connect 53 0 4 0;
#X connect 53 0 79 0;
#X connect 54 0 55 1;
#X connect 55 0 54 0;
#X connect 55 0 57 0;
#X connect 56 0 55 0;
#X connect 57 0 58 0;
#X connect 57 0 73 0;
#X connect 58 0 6 0;
#X connect 58 0 4 0;
#X connect 59 0 56 0;
#X connect 60 0 61 0;
#X connect 61 0 62 1;
#X connect 62 0 59 0;
#X connect 64 0 70 1;
#X connect 65 0 64 0;
#X connect 66 0 71 1;
#X connect 67 0 72 1;
#X connect 68 0 66 0;
#X connect 69 0 67 0;
#X connect 70 0 35 0;
#X connect 71 0 44 0;
#X connect 72 0 50 0;
#X connect 73 0 4 0;
#X connect 73 0 82 0;
#X connect 74 0 83 0;
#X connect 76 0 60 0;
#X connect 76 0 65 0;
#X connect 76 0 68 0;
#X connect 76 0 69 0;
#X connect 76 0 62 0;
#X connect 76 0 70 0;
#X connect 76 0 71 0;
#X connect 76 0 72 0;
#X connect 77 0 76 1;
#X connect 78 0 80 0;
#X connect 79 0 80 0;
#X connect 80 0 63 0;
#X connect 82 0 80 0;
#X connect 83 0 77 0;
#X connect 89 0 74 0;
