#N canvas 786 124 989 710 12;
#X obj 151 304 inlet;
#X obj 151 333 bng 19 250 50 0 empty empty empty 0 -10 0 12 #fcfcfc #000000 #000000;
#X msg 151 358 0;
#X floatatom 312 555 5 0 0 0 - - - 0;
#X obj 312 526 expr $f1 + $f2 + $f3 + $f4;
#X obj 71 635 expr ($f1 / $f2) * 100;
#X floatatom 71 610 5 0 0 0 - - - 0;
#X floatatom 222 611 5 0 0 0 - - - 0;
#X text 509 526 select total calculator;
#X text 177 331 reset;
#X floatatom 71 664 5 0 0 0 - - - 0;
#X obj 316 642 expr ($f1 / $f2) * 100;
#X floatatom 316 617 5 0 0 0 - - - 0;
#X floatatom 467 618 5 0 0 0 - - - 0;
#X floatatom 316 671 5 0 0 0 - - - 0;
#X obj 552 642 expr ($f1 / $f2) * 100;
#X floatatom 552 617 5 0 0 0 - - - 0;
#X floatatom 703 618 5 0 0 0 - - - 0;
#X floatatom 552 671 5 0 0 0 - - - 0;
#X obj 783 643 expr ($f1 / $f2) * 100;
#X floatatom 783 618 5 0 0 0 - - - 0;
#X floatatom 934 619 5 0 0 0 - - - 0;
#X floatatom 783 672 5 0 0 0 - - - 0;
#X obj 41 609 bng 19 250 50 0 empty VALXP empty 0 -10 0 12 #fcfcfc #000000 #000000;
#X obj 285 616 bng 19 250 50 0 empty VALXP empty 0 -10 0 12 #fcfcfc #000000 #000000;
#X obj 524 617 bng 19 250 50 0 empty VALXP empty 0 -10 0 12 #fcfcfc #000000 #000000;
#X obj 755 617 bng 19 250 50 0 empty VALXP empty 0 -10 0 12 #fcfcfc #000000 #000000;
#X obj 8 664 bng 19 250 50 0 BANGV empty empty 0 -10 0 12 #fcfcfc #000000 #000000;
#X obj 251 670 bng 19 250 50 0 BANGV empty empty 0 -10 0 12 #fcfcfc #000000 #000000;
#X obj 491 669 bng 19 250 50 0 BANGV empty empty 0 -10 0 12 #fcfcfc #000000 #000000;
#X obj 717 672 bng 19 250 50 0 BANGV empty empty 0 -10 0 12 #fcfcfc #000000 #000000;
#X obj 343 41 inlet;
#X floatatom 343 69 5 0 0 0 - - - 0;
#X obj 355 400 + 1;
#X obj 313 401 f 0;
#X obj 313 343 sel 1;
#X obj 313 367 bng 19 250 50 0 BXP empty empty 0 -10 0 12 #fcfcfc #000000 #000000;
#X obj 313 427 + 1;
#X floatatom 313 454 5 0 0 0 - - - 0;
#X obj 437 400 + 1;
#X obj 395 401 f 0;
#X obj 395 367 bng 19 250 50 0 BXP empty empty 0 -10 0 12 #fcfcfc #000000 #000000;
#X obj 395 427 + 1;
#X floatatom 395 454 5 0 0 0 - - - 0;
#X obj 395 343 sel 2;
#X obj 520 399 + 1;
#X obj 478 400 f 0;
#X obj 478 366 bng 19 250 50 0 BXP empty empty 0 -10 0 12 #fcfcfc #000000 #000000;
#X obj 478 426 + 1;
#X floatatom 478 453 5 0 0 0 - - - 0;
#X obj 478 342 sel 3;
#X obj 286 454 bng 19 250 50 0 empty empty empty 0 -10 0 12 #fcfcfc #000000 #000000;
#X obj 372 454 bng 19 250 50 0 empty empty empty 0 -10 0 12 #fcfcfc #000000 #000000;
#X obj 455 454 bng 19 250 50 0 empty empty empty 0 -10 0 12 #fcfcfc #000000 #000000;
#X obj 278 401 + 1;
#X obj 236 402 f 0;
#X obj 236 369 bng 19 250 50 0 BXP empty empty 0 -10 0 12 #fcfcfc #000000 #000000;
#X obj 236 428 + 1;
#X floatatom 236 455 5 0 0 0 - - - 0;
#X obj 236 344 sel 0;
#X obj 285 180 == 0;
#X floatatom 285 207 5 0 0 0 - - - 0;
#X obj 284 272 spigot;
#X obj 258 556 outlet;
#X floatatom 326 207 5 0 0 0 - - - 0;
#X obj 326 180 == 1;
#X floatatom 368 206 5 0 0 0 - - - 0;
#X floatatom 409 206 5 0 0 0 - - - 0;
#X obj 368 179 == 2;
#X obj 409 179 == 3;
#X obj 336 271 spigot;
#X obj 389 270 spigot;
#X obj 439 270 spigot;
#X obj 210 455 bng 19 250 50 0 empty empty empty 0 -10 0 12 #fcfcfc #000000 #000000;
#X floatatom 385 41 5 0 0 0 - - - 0;
#X text 433 38 state;
#X obj 346 125 spigot;
#X floatatom 385 96 5 0 0 0 - - - 0;
#X msg 455 477 3;
#X floatatom 258 527 5 0 0 0 - - - 0;
#X text 178 527 next state;
#X msg 210 479 0;
#X msg 285 479 1;
#X obj 385 68 == 2;
#X text 241 479 I-P;
#X text 318 479 I-R;
#X text 402 478 I-I;
#X text 487 477 I-IR;
#X text 113 78 I value calculator;
#X obj 385 11 inlet;
#X text 115 665 I-P value;
#X text 362 671 I-R value;
#X text 600 671 I-I value;
#X text 833 673 I-IR value;
#X obj 32 664 s ip;
#X obj 277 670 s ir;
#X obj 515 670 v ii;
#X obj 741 672 v iir;
#X connect 0 0 1 0;
#X connect 1 0 2 0;
#X connect 2 0 34 0;
#X connect 2 0 40 0;
#X connect 2 0 46 0;
#X connect 2 0 55 0;
#X connect 2 0 79 0;
#X connect 3 0 7 0;
#X connect 3 0 13 0;
#X connect 3 0 17 0;
#X connect 3 0 21 0;
#X connect 4 0 3 0;
#X connect 5 0 10 0;
#X connect 6 0 5 0;
#X connect 7 0 5 1;
#X connect 10 0 27 0;
#X connect 10 0 94 0;
#X connect 11 0 14 0;
#X connect 12 0 11 0;
#X connect 13 0 11 1;
#X connect 14 0 28 0;
#X connect 14 0 95 0;
#X connect 15 0 18 0;
#X connect 16 0 15 0;
#X connect 17 0 15 1;
#X connect 18 0 29 0;
#X connect 18 0 96 0;
#X connect 19 0 22 0;
#X connect 20 0 19 0;
#X connect 21 0 19 1;
#X connect 22 0 30 0;
#X connect 22 0 97 0;
#X connect 23 0 5 0;
#X connect 24 0 11 0;
#X connect 25 0 15 0;
#X connect 26 0 19 0;
#X connect 31 0 32 0;
#X connect 32 0 76 0;
#X connect 33 0 34 1;
#X connect 34 0 33 0;
#X connect 34 0 37 0;
#X connect 35 0 36 0;
#X connect 36 0 34 0;
#X connect 37 0 38 0;
#X connect 37 0 51 0;
#X connect 38 0 12 0;
#X connect 38 0 4 1;
#X connect 39 0 40 1;
#X connect 40 0 39 0;
#X connect 40 0 42 0;
#X connect 41 0 40 0;
#X connect 42 0 43 0;
#X connect 42 0 52 0;
#X connect 43 0 16 0;
#X connect 43 0 4 2;
#X connect 44 0 41 0;
#X connect 45 0 46 1;
#X connect 46 0 45 0;
#X connect 46 0 48 0;
#X connect 47 0 46 0;
#X connect 48 0 49 0;
#X connect 48 0 53 0;
#X connect 49 0 20 0;
#X connect 49 0 4 3;
#X connect 50 0 47 0;
#X connect 51 0 4 0;
#X connect 51 0 82 0;
#X connect 52 0 4 0;
#X connect 53 0 4 0;
#X connect 53 0 78 0;
#X connect 54 0 55 1;
#X connect 55 0 54 0;
#X connect 55 0 57 0;
#X connect 56 0 55 0;
#X connect 57 0 58 0;
#X connect 57 0 73 0;
#X connect 58 0 6 0;
#X connect 58 0 4 0;
#X connect 59 0 56 0;
#X connect 60 0 61 0;
#X connect 61 0 62 1;
#X connect 62 0 59 0;
#X connect 64 0 70 1;
#X connect 65 0 64 0;
#X connect 66 0 71 1;
#X connect 67 0 72 1;
#X connect 68 0 66 0;
#X connect 69 0 67 0;
#X connect 70 0 35 0;
#X connect 71 0 44 0;
#X connect 72 0 50 0;
#X connect 73 0 4 0;
#X connect 73 0 81 0;
#X connect 74 0 83 0;
#X connect 76 0 60 0;
#X connect 76 0 65 0;
#X connect 76 0 68 0;
#X connect 76 0 69 0;
#X connect 76 0 62 0;
#X connect 76 0 70 0;
#X connect 76 0 71 0;
#X connect 76 0 72 0;
#X connect 77 0 76 1;
#X connect 78 0 79 0;
#X connect 79 0 63 0;
#X connect 81 0 79 0;
#X connect 82 0 79 0;
#X connect 83 0 77 0;
#X connect 89 0 74 0;
