#N canvas 708 224 1212 577 12;
#X obj 139 239 random 100;
#X obj 139 343 moses 30;
#X obj 210 343 moses 60;
#X floatatom 86 41 4 1 3 0 - - - 0;
#X obj 139 207 bng 19 250 50 0 empty empty empty 17 7 0 10 #dcdcdc #000000 #000000;
#X obj 139 376 bng 19 250 50 0 empty empty empty 17 7 0 10 #dcdcdc #000000 #000000;
#X obj 210 376 bng 19 250 50 0 empty empty empty 17 7 0 10 #dcdcdc #000000 #000000;
#X obj 139 150 float 0;
#X obj 139 176 select 0 1 2 3, f 150;
#X floatatom 263 263 5 0 0 0 - - - 0;
#X floatatom 304 263 5 0 0 0 - - - 0;
#X obj 263 293 +;
#X floatatom 263 316 5 0 0 0 - - - 0;
#X obj 304 205 bng 19 250 50 0 empty BANGV empty 0 -10 0 12 #fcfcfc #000000 #000000;
#X obj 278 342 moses 60;
#X obj 278 375 bng 19 250 50 0 empty empty empty 17 7 0 10 #dcdcdc #000000 #000000;
#X floatatom 349 263 5 0 0 0 - - - 0;
#X obj 331 293 +;
#X floatatom 331 316 5 0 0 0 - - - 0;
#X obj 331 375 bng 19 250 50 0 empty empty empty 17 7 0 10 #dcdcdc #000000 #000000;
#X text 163 208 P state;
#X obj 12 14 inlet;
#X obj 12 43 bng 19 250 50 0 empty empty empty 0 -10 0 12 #fcfcfc #000000 #000000;
#X obj 139 123 bng 19 250 50 0 empty empty empty 0 -10 0 12 #fcfcfc #000000 #000000;
#X obj 631 524 outlet;
#X obj 1071 30 inlet;
#X floatatom 1071 103 5 0 0 0 - - VALUE1 0;
#X floatatom 1111 103 5 0 0 0 - - VALUE2 0;
#X floatatom 192 312 5 0 0 0 - VALUE1 - 0;
#X floatatom 191 286 5 0 0 0 - VALUE2 - 0;
#X floatatom 191 263 5 0 0 0 - VALUE3 - 0;
#X obj 400 238 random 100;
#X obj 400 342 moses 30;
#X obj 471 342 moses 60;
#X obj 400 206 bng 19 250 50 0 empty empty empty 17 7 0 10 #dcdcdc #000000 #000000;
#X floatatom 524 262 5 0 0 0 - - - 0;
#X floatatom 565 262 5 0 0 0 - - - 0;
#X obj 524 292 +;
#X floatatom 524 315 5 0 0 0 - - - 0;
#X obj 565 204 bng 19 250 50 0 empty BANGV empty 0 -10 0 12 #fcfcfc #000000 #000000;
#X obj 539 341 moses 60;
#X floatatom 610 262 5 0 0 0 - - - 0;
#X obj 592 292 +;
#X floatatom 592 315 5 0 0 0 - - - 0;
#X floatatom 453 311 5 0 0 0 - VALUE1 - 0;
#X floatatom 452 285 5 0 0 0 - VALUE2 - 0;
#X floatatom 452 262 5 0 0 0 - VALUE3 - 0;
#X obj 662 242 random 100;
#X obj 662 346 moses 30;
#X obj 733 346 moses 60;
#X obj 662 210 bng 19 250 50 0 empty empty empty 17 7 0 10 #dcdcdc #000000 #000000;
#X floatatom 786 266 5 0 0 0 - - - 0;
#X floatatom 827 266 5 0 0 0 - - - 0;
#X obj 786 296 +;
#X floatatom 786 319 5 0 0 0 - - - 0;
#X obj 827 208 bng 19 250 50 0 empty BANGV empty 0 -10 0 12 #fcfcfc #000000 #000000;
#X obj 801 345 moses 60;
#X floatatom 872 266 5 0 0 0 - - - 0;
#X obj 854 296 +;
#X floatatom 854 319 5 0 0 0 - - - 0;
#X floatatom 715 315 5 0 0 0 - VALUE1 - 0;
#X floatatom 714 289 5 0 0 0 - VALUE2 - 0;
#X floatatom 714 266 5 0 0 0 - VALUE3 - 0;
#X obj 924 242 random 100;
#X obj 924 346 moses 30;
#X obj 995 346 moses 60;
#X obj 924 210 bng 19 250 50 0 empty empty empty 17 7 0 10 #dcdcdc #000000 #000000;
#X floatatom 1048 266 5 0 0 0 - - - 0;
#X floatatom 1089 266 5 0 0 0 - - - 0;
#X obj 1048 296 +;
#X floatatom 1048 319 5 0 0 0 - - - 0;
#X obj 1089 208 bng 19 250 50 0 empty BANGV empty 0 -10 0 12 #fcfcfc #000000 #000000;
#X obj 1063 345 moses 60;
#X floatatom 1134 266 5 0 0 0 - - - 0;
#X obj 1116 296 +;
#X floatatom 1116 319 5 0 0 0 - - - 0;
#X floatatom 977 315 5 0 0 0 - VALUE1 - 0;
#X floatatom 976 289 5 0 0 0 - VALUE2 - 0;
#X floatatom 976 266 5 0 0 0 - VALUE3 - 0;
#X text 423 207 R state;
#X text 686 211 I state;
#X text 948 211 IR state;
#X floatatom 139 437 5 0 0 0 - - STATE 0;
#X floatatom 210 437 5 0 0 0 - - STATE 0;
#X floatatom 278 437 5 0 0 0 - - STATE 0;
#X floatatom 331 436 5 0 0 0 - - STATE 0;
#X floatatom 631 500 5 0 0 0 - STATE - 0;
#X obj 400 373 bng 19 250 50 0 empty empty empty 17 7 0 10 #dcdcdc #000000 #000000;
#X obj 471 373 bng 19 250 50 0 empty empty empty 17 7 0 10 #dcdcdc #000000 #000000;
#X obj 539 372 bng 19 250 50 0 empty empty empty 17 7 0 10 #dcdcdc #000000 #000000;
#X obj 592 372 bng 19 250 50 0 empty empty empty 17 7 0 10 #dcdcdc #000000 #000000;
#X floatatom 400 434 5 0 0 0 - - STATE 0;
#X floatatom 471 434 5 0 0 0 - - STATE 0;
#X floatatom 539 434 5 0 0 0 - - STATE 0;
#X floatatom 592 433 5 0 0 0 - - STATE 0;
#X obj 662 375 bng 19 250 50 0 empty empty empty 17 7 0 10 #dcdcdc #000000 #000000;
#X obj 733 375 bng 19 250 50 0 empty empty empty 17 7 0 10 #dcdcdc #000000 #000000;
#X obj 801 374 bng 19 250 50 0 empty empty empty 17 7 0 10 #dcdcdc #000000 #000000;
#X obj 854 374 bng 19 250 50 0 empty empty empty 17 7 0 10 #dcdcdc #000000 #000000;
#X floatatom 662 436 5 0 0 0 - - STATE 0;
#X floatatom 733 436 5 0 0 0 - - STATE 0;
#X floatatom 801 436 5 0 0 0 - - STATE 0;
#X floatatom 854 435 5 0 0 0 - - STATE 0;
#X obj 924 373 bng 19 250 50 0 empty empty empty 17 7 0 10 #dcdcdc #000000 #000000;
#X obj 995 373 bng 19 250 50 0 empty empty empty 17 7 0 10 #dcdcdc #000000 #000000;
#X obj 1063 372 bng 19 250 50 0 empty empty empty 17 7 0 10 #dcdcdc #000000 #000000;
#X obj 1116 372 bng 19 250 50 0 empty empty empty 17 7 0 10 #dcdcdc #000000 #000000;
#X floatatom 924 434 5 0 0 0 - - STATE 0;
#X floatatom 995 434 5 0 0 0 - - STATE 0;
#X floatatom 1063 434 5 0 0 0 - - STATE 0;
#X floatatom 1116 433 5 0 0 0 - - STATE 0;
#X floatatom 8 270 5 0 0 0 - - - 0;
#X floatatom 8 335 5 0 0 0 - - - 0;
#X obj 8 369 sel 0;
#X obj 8 429 bng 19 250 50 0 VALXP empty empty 0 -10 0 12 #fcfcfc #000000 #000000;
#X obj 86 12 inlet;
#X text 130 40 row number;
#X obj 263 237 v pp;
#X obj 304 237 v pr;
#X obj 349 237 v pi;
#X floatatom 185 123 5 0 0 0 - - - 0;
#X text 224 124 state;
#X obj 12 71 markovprime;
#X text 38 41 reset;
#X obj 12 107 markovretro;
#X obj 12 138 markovinv;
#X obj 13 167 markovretroinv;
#X obj 524 236 v rp;
#X obj 565 236 v rr;
#X obj 610 236 v ri;
#X obj 786 240 v ip;
#X obj 827 240 v ir;
#X obj 872 240 v ii;
#X obj 1048 240 v irp;
#X obj 1089 240 v irr;
#X obj 1134 240 v iri;
#X msg 139 408 0;
#X msg 210 408 1;
#X msg 278 407 2;
#X msg 331 406 3;
#X msg 400 403 0;
#X msg 471 403 1;
#X msg 539 402 2;
#X msg 592 401 3;
#X msg 662 404 0;
#X msg 733 404 1;
#X msg 801 403 2;
#X msg 854 402 3;
#X msg 924 402 0;
#X msg 995 402 1;
#X msg 1063 401 2;
#X msg 1116 400 3;
#X obj 1071 62 unpack f f f;
#X floatatom 1152 103 5 0 0 0 - - VALUE3 0;
#X text 952 104 first thesholds;
#X obj 65 310 inlet;
#X obj 476 478 t b;
#X floatatom 65 344 5 0 0 0 - - - 0;
#X obj 65 375 s mcon;
#X obj 476 518 markovwhich;
#X obj 8 237 r ns;
#X obj 8 303 sel 11;
#X obj 8 401 delay 300;
#X connect 0 0 1 0;
#X connect 1 0 5 0;
#X connect 1 1 2 0;
#X connect 2 0 6 0;
#X connect 2 1 14 0;
#X connect 3 0 122 1;
#X connect 3 0 124 1;
#X connect 3 0 125 1;
#X connect 3 0 126 1;
#X connect 4 0 0 0;
#X connect 5 0 136 0;
#X connect 5 0 156 0;
#X connect 6 0 137 0;
#X connect 6 0 156 0;
#X connect 7 0 8 0;
#X connect 8 0 4 0;
#X connect 8 1 34 0;
#X connect 8 2 50 0;
#X connect 8 3 66 0;
#X connect 9 0 11 0;
#X connect 9 0 1 1;
#X connect 10 0 11 1;
#X connect 11 0 12 0;
#X connect 12 0 2 1;
#X connect 12 0 17 0;
#X connect 13 0 117 0;
#X connect 13 0 118 0;
#X connect 13 0 119 0;
#X connect 14 0 15 0;
#X connect 14 1 19 0;
#X connect 15 0 138 0;
#X connect 15 0 156 0;
#X connect 16 0 17 1;
#X connect 17 0 18 0;
#X connect 18 0 14 1;
#X connect 19 0 139 0;
#X connect 19 0 156 0;
#X connect 21 0 22 0;
#X connect 22 0 122 0;
#X connect 22 0 124 0;
#X connect 22 0 125 0;
#X connect 22 0 126 0;
#X connect 23 0 7 0;
#X connect 25 0 152 0;
#X connect 28 0 1 1;
#X connect 29 0 2 1;
#X connect 30 0 14 1;
#X connect 31 0 32 0;
#X connect 32 0 87 0;
#X connect 32 1 33 0;
#X connect 33 0 88 0;
#X connect 33 1 40 0;
#X connect 34 0 31 0;
#X connect 35 0 37 0;
#X connect 35 0 32 1;
#X connect 36 0 37 1;
#X connect 37 0 38 0;
#X connect 38 0 33 1;
#X connect 38 0 42 0;
#X connect 39 0 127 0;
#X connect 39 0 128 0;
#X connect 39 0 129 0;
#X connect 40 0 89 0;
#X connect 40 1 90 0;
#X connect 41 0 42 1;
#X connect 42 0 43 0;
#X connect 43 0 40 1;
#X connect 44 0 32 1;
#X connect 45 0 33 1;
#X connect 46 0 40 1;
#X connect 47 0 48 0;
#X connect 48 0 95 0;
#X connect 48 1 49 0;
#X connect 49 0 96 0;
#X connect 49 1 56 0;
#X connect 50 0 47 0;
#X connect 51 0 53 0;
#X connect 51 0 48 1;
#X connect 52 0 53 1;
#X connect 53 0 54 0;
#X connect 54 0 49 1;
#X connect 54 0 58 0;
#X connect 55 0 130 0;
#X connect 55 0 131 0;
#X connect 55 0 132 0;
#X connect 56 0 97 0;
#X connect 56 1 98 0;
#X connect 57 0 58 1;
#X connect 58 0 59 0;
#X connect 59 0 56 1;
#X connect 60 0 48 1;
#X connect 61 0 49 1;
#X connect 62 0 56 1;
#X connect 63 0 64 0;
#X connect 64 0 103 0;
#X connect 64 1 65 0;
#X connect 65 0 104 0;
#X connect 65 1 72 0;
#X connect 66 0 63 0;
#X connect 67 0 69 0;
#X connect 67 0 64 1;
#X connect 68 0 69 1;
#X connect 69 0 70 0;
#X connect 70 0 65 1;
#X connect 70 0 74 0;
#X connect 71 0 133 0;
#X connect 71 0 134 0;
#X connect 71 0 135 0;
#X connect 72 0 105 0;
#X connect 72 1 106 0;
#X connect 73 0 74 1;
#X connect 74 0 75 0;
#X connect 75 0 72 1;
#X connect 76 0 64 1;
#X connect 77 0 65 1;
#X connect 78 0 72 1;
#X connect 86 0 24 0;
#X connect 86 0 159 1;
#X connect 87 0 140 0;
#X connect 87 0 156 0;
#X connect 88 0 141 0;
#X connect 88 0 156 0;
#X connect 89 0 142 0;
#X connect 89 0 156 0;
#X connect 90 0 143 0;
#X connect 90 0 156 0;
#X connect 95 0 144 0;
#X connect 95 0 156 0;
#X connect 96 0 145 0;
#X connect 96 0 156 0;
#X connect 97 0 146 0;
#X connect 97 0 156 0;
#X connect 98 0 147 0;
#X connect 98 0 156 0;
#X connect 103 0 148 0;
#X connect 103 0 156 0;
#X connect 104 0 149 0;
#X connect 104 0 156 0;
#X connect 105 0 150 0;
#X connect 105 0 156 0;
#X connect 106 0 151 0;
#X connect 106 0 156 0;
#X connect 111 0 161 0;
#X connect 112 0 113 0;
#X connect 113 0 162 0;
#X connect 114 0 23 0;
#X connect 115 0 3 0;
#X connect 117 0 9 0;
#X connect 118 0 10 0;
#X connect 119 0 16 0;
#X connect 120 0 7 1;
#X connect 120 0 122 2;
#X connect 120 0 124 2;
#X connect 120 0 125 2;
#X connect 120 0 126 2;
#X connect 122 0 120 0;
#X connect 124 0 120 0;
#X connect 125 0 120 0;
#X connect 126 0 120 0;
#X connect 127 0 35 0;
#X connect 128 0 36 0;
#X connect 129 0 41 0;
#X connect 130 0 51 0;
#X connect 131 0 52 0;
#X connect 132 0 57 0;
#X connect 133 0 67 0;
#X connect 134 0 68 0;
#X connect 135 0 73 0;
#X connect 136 0 82 0;
#X connect 137 0 83 0;
#X connect 138 0 84 0;
#X connect 139 0 85 0;
#X connect 140 0 91 0;
#X connect 141 0 92 0;
#X connect 142 0 93 0;
#X connect 143 0 94 0;
#X connect 144 0 99 0;
#X connect 145 0 100 0;
#X connect 146 0 101 0;
#X connect 147 0 102 0;
#X connect 148 0 107 0;
#X connect 149 0 108 0;
#X connect 150 0 109 0;
#X connect 151 0 110 0;
#X connect 152 0 26 0;
#X connect 152 1 27 0;
#X connect 152 2 153 0;
#X connect 155 0 157 0;
#X connect 156 0 159 0;
#X connect 157 0 158 0;
#X connect 160 0 111 0;
#X connect 161 0 112 0;
#X connect 162 0 114 0;
