#N canvas 1043 232 505 490 12;
#X obj 222 357 bng 19 250 50 0 empty empty empty 0 -10 0 12 #fcfcfc #000000 #000000;
#X floatatom 222 413 5 0 0 0 - - - 0;
#X obj 222 442 s col;
#X floatatom 134 54 5 0 0 0 - - - 0;
#X obj 93 54 inlet;
#X obj 261 202 inlet;
#X floatatom 261 231 5 0 0 0 - - - 0;
#X obj 261 261 == 0;
#X obj 306 261 == 1;
#X obj 349 261 == 2;
#X obj 391 261 == 3;
#X obj 18 170 spigot;
#X obj 94 170 spigot;
#X obj 162 168 spigot;
#X obj 238 168 spigot;
#X obj 222 322 spigot;
#X floatatom 261 289 5 0 0 0 - - - 0;
#X obj 291 357 bng 19 250 50 0 empty empty empty 0 -10 0 12 #fcfcfc #000000 #000000;
#X floatatom 291 413 5 0 0 0 - - - 0;
#X obj 291 442 s col;
#X obj 272 321 spigot;
#X floatatom 311 288 5 0 0 0 - - - 0;
#X obj 322 321 spigot;
#X floatatom 361 288 5 0 0 0 - - - 0;
#X obj 373 321 spigot;
#X floatatom 412 288 5 0 0 0 - - - 0;
#X obj 356 357 bng 19 250 50 0 empty empty empty 0 -10 0 12 #fcfcfc #000000 #000000;
#X floatatom 356 413 5 0 0 0 - - - 0;
#X obj 356 442 s col;
#X obj 222 384 random 2;
#X obj 291 384 random 5;
#X obj 356 384 random 8;
#X obj 422 357 bng 19 250 50 0 empty empty empty 0 -10 0 12 #fcfcfc #000000 #000000;
#X floatatom 422 413 5 0 0 0 - - - 0;
#X obj 422 442 s col;
#X obj 422 384 random 11;
#X obj 134 25 r mcon;
#X connect 0 0 29 0;
#X connect 1 0 2 0;
#X connect 3 0 11 1;
#X connect 3 0 12 1;
#X connect 3 0 13 1;
#X connect 3 0 14 1;
#X connect 4 0 11 0;
#X connect 4 0 12 0;
#X connect 4 0 13 0;
#X connect 4 0 14 0;
#X connect 5 0 6 0;
#X connect 6 0 7 0;
#X connect 6 0 8 0;
#X connect 6 0 9 0;
#X connect 6 0 10 0;
#X connect 7 0 16 0;
#X connect 8 0 21 0;
#X connect 9 0 23 0;
#X connect 10 0 25 0;
#X connect 11 0 15 0;
#X connect 12 0 20 0;
#X connect 13 0 22 0;
#X connect 14 0 24 0;
#X connect 15 0 0 0;
#X connect 16 0 15 1;
#X connect 17 0 30 0;
#X connect 18 0 19 0;
#X connect 20 0 17 0;
#X connect 21 0 20 1;
#X connect 22 0 26 0;
#X connect 23 0 22 1;
#X connect 24 0 32 0;
#X connect 25 0 24 1;
#X connect 26 0 31 0;
#X connect 27 0 28 0;
#X connect 29 0 1 0;
#X connect 30 0 18 0;
#X connect 31 0 27 0;
#X connect 32 0 35 0;
#X connect 33 0 34 0;
#X connect 35 0 33 0;
#X connect 36 0 3 0;
