#N canvas 878 347 637 218 12;
#X obj 6 42 cnv 1 625 1 empty empty empty 8 12 0 13 #000000 #000000 0;
#X obj 117 149 bng 19 250 50 0 empty empty empty 0 -10 0 12 #fcfcfc #000000 #000000;
#X floatatom 198 149 5 0 0 0 - - - 0;
#X obj 117 183 markovwhich, f 12;
#X text 70 149 bang;
#X text 243 150 current row;
#X text 113 11 - markov row variant selector;
#X obj 25 11 markovwhich;
#X text 25 54 [markovwhich] object determines which variant of the row to choose \, which is decided by [markov]., f 84;
#X connect 1 0 3 0;
#X connect 2 0 3 1;
