#N canvas 1146 95 637 251 12;
#X obj 6 42 cnv 1 625 1 empty empty empty 8 12 0 13 #000000 #000000 0;
#X obj 117 149 bng 19 250 50 0 empty empty empty 0 -10 0 12 #fcfcfc #000000 #000000;
#X floatatom 184 149 5 0 0 0 - - - 0;
#X floatatom 117 214 5 0 0 0 - - - 0;
#X obj 25 11 mselector;
#X text 102 11 - twelve tone row selector for markov object;
#X obj 117 183 mselector, f 10;
#X text 70 149 bang;
#X text 227 148 next row;
#X text 23 214 current row;
#X text 25 54 It uses the bang information coming from the [chorder_1] object and enables the selection of the current row information via the send objects using the row info coming from the [markov] object. At the same time \, the current row info is sent to the [markov] object., f 84;
#X connect 1 0 6 0;
#X connect 2 0 6 1;
#X connect 6 0 3 0;
