#N canvas 228 172 617 220 12;
#X floatatom 399 91 5 0 0 0 - - - 0;
#X obj 399 126 select 0 1 2;
#X obj 399 55 inlet;
#X obj 399 154 bng 19 250 50 0 empty empty empty 0 -10 0 12 #fcfcfc #000000 #000000;
#X obj 426 154 bng 19 250 50 0 empty empty empty 0 -10 0 12 #fcfcfc #000000 #000000;
#X obj 453 154 bng 19 250 50 0 empty empty empty 0 -10 0 12 #fcfcfc #000000 #000000;
#X obj 480 154 bng 19 250 50 0 empty empty empty 0 -10 0 12 #fcfcfc #000000 #000000;
#X obj 521 153 outlet;
#X obj 399 188 s a;
#X obj 428 188 s b;
#X obj 457 188 s c;
#X obj 486 188 s d;
#X text 11 9 bang;
#X text 395 32 row;
#X text 520 132 row feedback;
#X obj 13 35 inlet;
#X obj 56 96 == 0;
#X obj 17 153 spigot;
#X floatatom 56 124 5 0 0 0 - - - 0;
#X obj 101 152 spigot;
#X floatatom 140 123 5 0 0 0 - - - 0;
#X obj 140 95 == 1;
#X obj 187 150 spigot;
#X floatatom 226 121 5 0 0 0 - - - 0;
#X obj 226 93 == 2;
#X obj 270 150 spigot;
#X floatatom 309 121 5 0 0 0 - - - 0;
#X obj 309 94 == 3;
#X connect 0 0 1 0;
#X connect 0 0 7 0;
#X connect 0 0 16 0;
#X connect 0 0 21 0;
#X connect 0 0 24 0;
#X connect 0 0 27 0;
#X connect 1 0 3 0;
#X connect 1 1 4 0;
#X connect 1 2 5 0;
#X connect 1 3 6 0;
#X connect 2 0 0 0;
#X connect 3 0 8 0;
#X connect 4 0 9 0;
#X connect 5 0 10 0;
#X connect 6 0 11 0;
#X connect 15 0 17 0;
#X connect 15 0 19 0;
#X connect 15 0 22 0;
#X connect 15 0 25 0;
#X connect 16 0 18 0;
#X connect 17 0 3 0;
#X connect 18 0 17 1;
#X connect 19 0 4 0;
#X connect 20 0 19 1;
#X connect 21 0 20 0;
#X connect 22 0 5 0;
#X connect 23 0 22 1;
#X connect 24 0 23 0;
#X connect 25 0 6 0;
#X connect 26 0 25 1;
#X connect 27 0 26 0;
