#N canvas 312 153 908 468 12;
#X floatatom 153 167 5 0 0 0 - - - 0;
#X floatatom 451 165 5 0 0 0 - - - 0;
#X floatatom 302 168 5 0 0 0 - - - 0;
#X floatatom 597 165 5 0 0 0 - - - 0;
#X floatatom 757 163 5 0 0 0 - - - 0;
#X floatatom 8 167 5 0 0 0 - - - 0;
#X obj 130 76 t f f f f f f;
#X listbox 167 258 33 0 0 0 - - - 0;
#X obj 167 227 pack f f f f f f;
#X obj 167 288 unpack f f f f f f;
#X obj 130 21 inlet;
#X floatatom 130 46 5 0 0 0 - - - 0;
#X floatatom 167 341 5 0 0 0 - - - 0;
#X floatatom 215 341 5 0 0 0 - - - 0;
#X floatatom 262 341 5 0 0 0 - - - 0;
#X floatatom 307 341 5 0 0 0 - - - 0;
#X floatatom 355 342 5 0 0 0 - - - 0;
#X floatatom 407 343 5 0 0 0 - - - 0;
#X text 454 345 nota değerleri (ms);
#X text 174 20 ms inleti;
#X text 236 435 nota değerleri çıkışı;
#X obj 169 436 s nl;
#X obj 167 387 pack f f f f f f;
#X obj 153 137 expr round($f1 * 2);
#X obj 8 137 expr round($f1 * 4);
#X obj 302 137 expr round($f1 / 1);
#X obj 451 136 expr round($f1 / 2);
#X obj 596 135 expr round($f1 / 4);
#X obj 757 134 expr round($f1 / 8);
#X connect 0 0 8 1;
#X connect 1 0 8 3;
#X connect 2 0 8 2;
#X connect 3 0 8 4;
#X connect 4 0 8 5;
#X connect 5 0 8 0;
#X connect 6 0 24 0;
#X connect 6 1 23 0;
#X connect 6 2 25 0;
#X connect 6 3 26 0;
#X connect 6 4 27 0;
#X connect 6 5 28 0;
#X connect 7 0 9 0;
#X connect 8 0 7 0;
#X connect 9 0 12 0;
#X connect 9 1 13 0;
#X connect 9 2 14 0;
#X connect 9 3 15 0;
#X connect 9 4 16 0;
#X connect 9 5 17 0;
#X connect 10 0 11 0;
#X connect 11 0 6 0;
#X connect 12 0 22 0;
#X connect 13 0 22 1;
#X connect 14 0 22 2;
#X connect 15 0 22 3;
#X connect 16 0 22 4;
#X connect 17 0 22 5;
#X connect 22 0 21 0;
#X connect 23 0 0 0;
#X connect 24 0 5 0;
#X connect 25 0 2 0;
#X connect 26 0 1 0;
#X connect 27 0 3 0;
#X connect 28 0 4 0;
