#N canvas 1074 304 641 191 12;
#X obj 6 42 cnv 1 625 1 empty empty empty 8 12 0 13 #000000 #000000 0;
#X obj 25 11 notelength;
#X text 106 11 - note length calculator;
#X obj 29 150 notelength, f 18;
#X floatatom 29 106 5 0 0 0 - - - 0;
#X text 72 105 milisecond;
#X text 26 53 It converts the input millisecond value into note durations in milliseconds and sends them to the [lengthselect] objects., f 84;
#X connect 4 0 3 0;
