#N canvas 1146 95 644 262 12;
#X obj 6 42 cnv 1 625 1 empty empty empty 8 12 0 13 #000000 #000000 0;
#X obj 25 11 out1;
#X obj 29 164 out1, f 18;
#X floatatom 29 130 5 0 0 0 - - - 0;
#X floatatom 29 204 5 0 0 0 - - - 0;
#X floatatom 90 203 5 0 0 0 - - - 0;
#X floatatom 152 202 5 0 0 0 - - - 0;
#X text 80 12 - twelve tone to midi convertor;
#X text 73 131 row number;
#X text 27 232 pitch;
#X text 79 233 velocity;
#X text 151 234 duration;
#X text 522 128 same objects:;
#X obj 525 153 out2;
#X obj 525 178 out3;
#X obj 525 202 out4;
#X text 26 53 Converts the incoming twelve tone note value into playable MIDI information. The delay object inside [out1] object \, which determines the duration \, is set relative to the first row \, prime., f 84;
#X connect 2 0 4 0;
#X connect 2 1 5 0;
#X connect 2 2 6 0;
#X connect 3 0 2 0;
