#N canvas 887 45 507 559 12;
#X obj 168 36 inlet;
#X obj 168 75 + 60;
#X msg 168 118 \$1 100;
#X floatatom 302 218 5 0 0 0 - - - 0;
#X obj 347 140 bng 19 250 50 0 empty empty empty 0 -10 0 12 #fcfcfc #000000 #000000;
#X obj 294 85 bng 19 250 50 0 empty empty empty 0 -10 0 12 #fcfcfc #000000 #000000;
#X msg 347 179 0;
#X obj 375 293 line~;
#X obj 375 244 pack 0 10;
#X msg 293 180 0.5;
#X obj 347 112 del 500;
#X floatatom 409 49 5 0 0 0 - - - 0;
#X obj 106 223 polyblip;
#X obj 168 157 unpack f f, f 11;
#X obj 104 329 dac~;
#X obj 104 300 *~;
#X floatatom 13 220 5 0 0 0 - - - 0;
#X obj 266 324 bng 19 250 50 0 empty empty empty 0 -10 0 12 #fcfcfc #000000 #000000;
#X obj 299 349 127;
#X obj 280 384 change;
#X floatatom 280 415 5 0 0 0 - - - 0;
#X obj 281 521 makenote;
#X obj 107 454 outlet;
#X obj 365 437 outlet;
#X obj 440 88 outlet;
#X obj 409 14 r l3;
#X connect 0 0 1 0;
#X connect 1 0 2 0;
#X connect 1 0 16 0;
#X connect 1 0 5 0;
#X connect 2 0 13 0;
#X connect 3 0 8 0;
#X connect 4 0 6 0;
#X connect 5 0 9 0;
#X connect 5 0 10 0;
#X connect 6 0 3 0;
#X connect 7 0 15 1;
#X connect 8 0 7 0;
#X connect 9 0 3 0;
#X connect 10 0 4 0;
#X connect 11 0 10 1;
#X connect 11 0 21 2;
#X connect 11 0 24 0;
#X connect 12 0 15 0;
#X connect 13 0 12 0;
#X connect 13 1 12 1;
#X connect 15 0 14 0;
#X connect 15 0 14 1;
#X connect 16 0 17 0;
#X connect 16 0 19 0;
#X connect 16 0 22 0;
#X connect 17 0 18 0;
#X connect 18 0 21 1;
#X connect 18 0 23 0;
#X connect 19 0 20 0;
#X connect 20 0 21 0;
#X connect 25 0 11 0;
