#N canvas 1192 123 659 268 12;
#X obj 6 42 cnv 1 625 1 empty empty empty 8 12 0 13 #000000 #000000 0;
#X obj 32 177 outmidi, f 18;
#X floatatom 32 140 5 0 0 0 - - - 0;
#X floatatom 73 140 5 0 0 0 - - - 0;
#X floatatom 114 140 5 0 0 0 - - - 0;
#X floatatom 155 139 5 0 0 0 - - - 0;
#X text 29 114 P;
#X text 71 114 R;
#X text 111 114 I;
#X text 153 114 RI;
#X floatatom 32 210 5 0 0 0 - - - 0;
#X floatatom 93 210 5 0 0 0 - - - 0;
#X floatatom 155 209 5 0 0 0 - - - 0;
#X obj 25 11 outmidi;
#X text 106 11 - midi information container;
#X text 199 138 pitch numbers;
#X text 30 231 pitch;
#X text 83 232 velocity;
#X text 155 233 duration;
#X text 26 53 Its centrally gathers pitch \, velocity \, and duration data from multiple out objects and sends them to the [textmidi] object via three separate outlets., f 87;
#X connect 1 0 10 0;
#X connect 1 1 11 0;
#X connect 1 2 12 0;
#X connect 2 0 1 0;
#X connect 3 0 1 1;
#X connect 4 0 1 2;
#X connect 5 0 1 3;
