#N canvas 189 430 392 312 12;
#X obj 24 76 out1;
#X obj 134 74 out2;
#X obj 234 73 out3;
#X obj 333 72 out4;
#X obj 24 26 inlet;
#X obj 134 26 inlet;
#X obj 234 26 inlet;
#X obj 333 27 inlet;
#X obj 100 275 outlet;
#X obj 204 275 outlet;
#X obj 291 276 outlet;
#X connect 0 0 8 0;
#X connect 0 1 9 0;
#X connect 0 2 10 0;
#X connect 1 0 8 0;
#X connect 1 1 9 0;
#X connect 1 2 10 0;
#X connect 2 0 8 0;
#X connect 2 1 9 0;
#X connect 2 2 10 0;
#X connect 3 0 8 0;
#X connect 3 1 9 0;
#X connect 3 2 10 0;
#X connect 4 0 0 0;
#X connect 5 0 1 0;
#X connect 6 0 2 0;
#X connect 7 0 3 0;
