#N canvas 1134 120 396 382 12;
#X floatatom 142 49 5 0 0 0 - - - 0;
#X obj 142 84 select 0 1 2;
#X obj 142 155 bng 19 250 50 0 empty empty empty 0 -10 0 12 #fcfcfc #000000 #000000;
#X obj 169 155 bng 19 250 50 0 empty empty empty 0 -10 0 12 #fcfcfc #000000 #000000;
#X obj 196 156 bng 19 250 50 0 empty empty empty 0 -10 0 12 #fcfcfc #000000 #000000;
#X obj 223 157 bng 19 250 50 0 empty empty empty 0 -10 0 12 #fcfcfc #000000 #000000;
#X obj 103 247 spigot;
#X obj 142 195 tgl 19 0 empty empty empty 0 -6 0 8 #dfdfdf #000000 #000000 0 1;
#X obj 103 290 bng 19 250 50 0 empty empty empty 0 -10 0 12 #fcfcfc #000000 #000000;
#X obj 103 333 s a;
#X obj 156 246 spigot;
#X obj 169 195 tgl 19 0 empty empty empty 0 -6 0 8 #dfdfdf #000000 #000000 0 1;
#X obj 156 290 bng 19 250 50 0 empty empty empty 0 -10 0 12 #fcfcfc #000000 #000000;
#X obj 156 333 s b;
#X obj 206 246 spigot;
#X obj 206 290 bng 19 250 50 0 empty empty empty 0 -10 0 12 #fcfcfc #000000 #000000;
#X obj 256 246 spigot;
#X obj 256 290 bng 19 250 50 0 empty empty empty 0 -10 0 12 #fcfcfc #000000 #000000;
#X obj 196 195 tgl 19 0 empty empty empty 0 -6 0 8 #dfdfdf #000000 #000000 0 1;
#X obj 223 195 tgl 19 0 empty empty empty 0 -6 0 8 #dfdfdf #000000 #000000 0 1;
#X obj 206 333 s c;
#X obj 256 333 s d;
#X obj 142 13 inlet;
#X obj 40 191 inlet;
#X obj 82 80 inlet;
#X obj 82 112 bng 19 250 50 0 empty empty empty 0 -10 0 12 #fcfcfc #000000 #000000;
#X text 4 114 row reset;
#X msg 82 156 0;
#X connect 0 0 1 0;
#X connect 1 0 2 0;
#X connect 1 1 3 0;
#X connect 1 2 4 0;
#X connect 1 3 5 0;
#X connect 2 0 7 0;
#X connect 3 0 11 0;
#X connect 4 0 18 0;
#X connect 5 0 19 0;
#X connect 6 0 8 0;
#X connect 7 0 6 1;
#X connect 8 0 9 0;
#X connect 10 0 12 0;
#X connect 11 0 10 1;
#X connect 12 0 13 0;
#X connect 14 0 15 0;
#X connect 15 0 20 0;
#X connect 16 0 17 0;
#X connect 17 0 21 0;
#X connect 18 0 14 1;
#X connect 19 0 16 1;
#X connect 22 0 0 0;
#X connect 23 0 6 0;
#X connect 23 0 10 0;
#X connect 23 0 14 0;
#X connect 23 0 16 0;
#X connect 24 0 25 0;
#X connect 25 0 27 0;
#X connect 27 0 7 0;
#X connect 27 0 19 0;
#X connect 27 0 18 0;
#X connect 27 0 11 0;
