#N canvas 1192 123 659 401 12;
#X obj 6 42 cnv 1 625 1 empty empty empty 8 12 0 13 #000000 #000000 0;
#X obj 177 287 bng 19 250 50 0 empty empty empty 0 -10 0 12 #fcfcfc #000000 #000000;
#X obj 54 361 textmidi, f 18;
#X obj 25 11 textmidi;
#X text 204 287 midi header creator;
#X floatatom 84 192 5 0 0 0 - - - 0;
#X floatatom 115 226 5 0 0 0 - - - 0;
#X floatatom 146 254 5 0 0 0 - - - 0;
#X text 129 192 pitch;
#X text 159 224 velocity;
#X text 189 254 duration;
#X msg 54 163 clear;
#X msg 30 133 write;
#X text 106 11 - midi text file exporter;
#X text 26 53 It generates a text file in a format suitable for conversion to MIDI by the Python application \, organizing incoming MIDI messages in a specific order. To ensure the correct format \, "clear" and "midi header" buttons must be executed in sequence before each recording cycle., f 84;
#X connect 1 0 2 4;
#X connect 5 0 2 1;
#X connect 6 0 2 2;
#X connect 7 0 2 3;
#X connect 11 0 2 0;
#X connect 12 0 2 0;
