#N canvas 812 211 714 621 12;
#X obj 32 584 textfile;
#X obj 173 139 pack f f;
#X floatatom 226 89 5 0 0 0 - - - 0;
#X floatatom 173 216 5 0 0 0 - - - 0;
#X obj 173 178 expr $f1/(60000/$f2);
#X text 221 31 beat hesaplama;
#X text 215 216 beat;
#X obj 173 37 inlet;
#X text 148 13 delay'den;
#X text 503 92 start verisi;
#X obj 507 188 bng 19 250 50 0 empty empty empty 0 -10 0 12 #fcfcfc #000000 #000000;
#X obj 31 316 inlet;
#X obj 75 316 inlet;
#X obj 173 65 t f;
#X floatatom 173 91 5 0 0 0 - - - 0;
#X obj 557 348 v bpmvalue;
#X floatatom 557 377 5 0 0 0 - - - 0;
#X msg 31 409 add \$1 \$2 \$3 \$4;
#X msg 164 409 add pitch velocity duration start;
#X msg 557 410 add tempo \$1;
#X obj 345 281 inlet;
#X obj 660 410 inlet;
#X obj 345 313 t b b b;
#X msg 420 410 add time_unit beat;
#X obj 226 60 v bpmvalue;
#X obj 31 344 t f;
#X obj 67 345 t f;
#X obj 31 373 pack f f f f;
#X obj 507 117 r ns;
#X connect 1 0 4 0;
#X connect 1 0 4 1;
#X connect 2 0 1 1;
#X connect 3 0 27 2;
#X connect 4 0 3 0;
#X connect 7 0 13 0;
#X connect 10 0 24 0;
#X connect 11 0 25 0;
#X connect 12 0 26 0;
#X connect 13 0 14 0;
#X connect 14 0 1 0;
#X connect 15 0 16 0;
#X connect 16 0 19 0;
#X connect 17 0 0 0;
#X connect 18 0 0 0;
#X connect 19 0 0 0;
#X connect 20 0 22 0;
#X connect 21 0 0 0;
#X connect 22 0 18 0;
#X connect 22 1 23 0;
#X connect 22 2 15 0;
#X connect 23 0 0 0;
#X connect 24 0 2 0;
#X connect 25 0 27 0;
#X connect 26 0 27 1;
#X connect 27 0 17 0;
#X connect 28 0 10 0;
#X connect 28 0 27 3;
